<svg width="41" height="41" viewBox="0 0 41 41" fill="none" xmlns="http://www.w3.org/2000/svg">
<circle cx="20.2544" cy="20.8223" r="19.5" stroke="#5F5956"/>
<path d="M16.7683 15.5537C17.2492 15.5537 17.694 15.5913 18.1005 15.7027C18.4693 15.7705 18.8213 15.9096 19.1369 16.1122C19.4334 16.2981 19.6554 16.5593 19.803 16.8942C19.9512 17.2291 20.025 17.6393 20.025 18.0856C20.025 18.6072 19.9144 19.0535 19.6554 19.3885C19.4334 19.7242 19.0631 20.0214 18.619 20.245C19.2483 20.4316 19.7292 20.7666 20.025 21.2129C20.3215 21.66 20.5067 22.2184 20.5067 22.8514C20.5067 23.373 20.3953 23.8193 20.2102 24.1919C20.025 24.5645 19.7292 24.8994 19.3958 25.1229C19.0336 25.3625 18.6332 25.5387 18.2119 25.6438C17.7678 25.7559 17.3237 25.8304 16.8797 25.8304H11.9189V15.5537H16.7683ZM16.4717 19.7234C16.8789 19.7234 17.2123 19.612 17.4713 19.4261C17.7302 19.2402 17.8416 18.9045 17.8416 18.4951C17.8416 18.2715 17.8039 18.048 17.7302 17.8997C17.6564 17.7507 17.545 17.6386 17.3975 17.5272C17.2492 17.4526 17.1009 17.3781 16.9158 17.3413C16.7306 17.3036 16.5462 17.3036 16.3235 17.3036H14.1769V19.7242H16.4725L16.4717 19.7234ZM16.5831 24.1174C16.8052 24.1174 17.0272 24.0797 17.2123 24.0429C17.3993 24.0073 17.5761 23.931 17.7302 23.8193C17.881 23.7104 18.0072 23.5709 18.1005 23.4099C18.1742 23.224 18.2487 23.0004 18.2487 22.74C18.2487 22.2184 18.1005 21.8459 17.8047 21.5855C17.5081 21.3619 17.1009 21.2505 16.62 21.2505H14.1769V24.1181H16.5831V24.1174ZM23.7273 24.0797C24.0231 24.3778 24.4671 24.5268 25.0595 24.5268C25.4667 24.5268 25.837 24.4154 26.1328 24.2295C26.4293 24.006 26.6145 23.7824 26.6882 23.5589H28.5021C28.2056 24.4523 27.7615 25.0853 27.1699 25.4947C26.5768 25.8673 25.8738 26.0908 25.0226 26.0908C24.478 26.0925 23.9379 25.9914 23.4307 25.7928C22.9744 25.6216 22.5675 25.3403 22.2461 24.9739C21.9023 24.6311 21.6482 24.209 21.5062 23.7448C21.3211 23.2609 21.2466 22.74 21.2466 22.1439C21.2466 21.5855 21.3211 21.0646 21.5062 20.5799C21.6842 20.1133 21.9476 19.684 22.283 19.314C22.6164 18.979 23.0236 18.6817 23.4676 18.4951C23.9619 18.2964 24.4899 18.1952 25.0226 18.197C25.6518 18.197 26.2073 18.3092 26.6882 18.5696C27.1699 18.83 27.5395 19.1281 27.836 19.5751C28.1385 20.0045 28.3639 20.4834 28.5021 20.9901C28.5759 21.5109 28.6127 22.0325 28.5759 22.6279H23.2087C23.2087 23.224 23.4307 23.7824 23.7273 24.0805V24.0797ZM26.059 20.1705C25.8001 19.9101 25.3929 19.761 24.9112 19.761C24.6288 19.7568 24.3495 19.8206 24.0968 19.9469C23.8748 20.0591 23.7273 20.2081 23.579 20.3571C23.4428 20.5011 23.3526 20.6824 23.3201 20.878C23.2825 21.0646 23.2456 21.2129 23.2456 21.3619H26.5768C26.5031 20.8035 26.3179 20.4316 26.059 20.1705ZM22.8015 16.2612H26.9471V17.2667H22.8023V16.2612H22.8015Z" fill="#5F5956"/>
</svg>
