<svg width="23" height="21" viewBox="0 0 23 21" fill="none" xmlns="http://www.w3.org/2000/svg">
<path d="M17.8296 18.4716C15.8753 20.4259 10.8704 18.5896 6.65085 14.3701C2.4313 10.1505 0.594969 5.1456 2.54928 3.19128L3.83605 1.90451C4.72438 1.01618 6.18812 1.03966 7.10541 1.95696L9.0985 3.95005C10.0158 4.86734 10.0393 6.33109 9.15095 7.21941L8.87457 7.4958C8.39495 7.97542 8.34803 8.74914 8.79368 9.2892C9.22354 9.81011 9.68698 10.329 10.1895 10.8315C10.6919 11.3339 11.2108 11.7974 11.7317 12.2272C12.2718 12.6729 13.0455 12.626 13.5251 12.1463L13.8015 11.87C14.6898 10.9816 16.1536 11.0051 17.0709 11.9224L19.0639 13.9155C19.9812 14.8328 20.0047 16.2965 19.1164 17.1849L17.8296 18.4716Z" stroke="black" stroke-width="1.7"/>
<path d="M16.394 7.25315C16.15 6.65797 15.7864 6.10034 15.3031 5.61707C14.8471 5.16109 14.325 4.81162 13.7675 4.56866" stroke="black" stroke-width="1.7" stroke-linecap="round"/>
<path d="M13.7675 1.16576C15.1021 1.64926 16.3544 2.426 17.4244 3.49599C18.5212 4.59284 19.3099 5.88118 19.7904 7.25348" stroke="black" stroke-width="1.7" stroke-linecap="round"/>
</svg>
