<svg width="23" height="19" viewBox="0 0 23 19" fill="none" xmlns="http://www.w3.org/2000/svg">
<path d="M21.1384 8.77967L21.7964 8.41982L21.1384 8.77967ZM21.1384 10.558L21.7964 10.9178L21.1384 10.558ZM1.1917 8.77951L1.84972 9.13938L1.1917 8.77951ZM1.19168 10.5578L0.533653 10.9177L0.533653 10.9177L1.19168 10.5578ZM19.6225 5.55704C19.3259 5.26787 18.8511 5.27387 18.5619 5.57044C18.2727 5.86701 18.2787 6.34185 18.5753 6.63102L19.6225 5.55704ZM8.5178 15.3869C8.11656 15.2841 7.7079 15.5259 7.60502 15.9272C7.50214 16.3284 7.744 16.7371 8.14524 16.8399L8.5178 15.3869ZM14.1164 3.25494L13.9223 3.97938L14.1164 3.25494ZM5.58033 15.0058L5.21143 15.6588L6.01243 14.3928L5.58033 15.0058ZM1.84972 9.13938C3.64937 5.8487 7.14643 3.61829 11.165 3.61829V2.11829C6.57735 2.11829 2.58631 4.66638 0.533673 8.41965L1.84972 9.13938ZM20.4804 10.1981C18.6807 13.4888 15.1837 15.7192 11.1651 15.7192V17.2192C15.7527 17.2192 19.7438 14.6711 21.7964 10.9178L20.4804 10.1981ZM20.4804 9.13953C20.6608 9.46955 20.6608 9.86809 20.4804 10.1981L21.7964 10.9178C22.2222 10.1394 22.2222 9.19831 21.7964 8.41982L20.4804 9.13953ZM0.533673 8.41965C0.107923 9.19813 0.107916 10.1392 0.533653 10.9177L1.84971 10.198C1.66923 9.86794 1.66924 9.4694 1.84972 9.13938L0.533673 8.41965ZM18.5753 6.63102C19.3284 7.36536 19.9723 8.21044 20.4804 9.13953L21.7964 8.41982C21.2162 7.35876 20.4814 6.39451 19.6225 5.55704L18.5753 6.63102ZM11.1651 15.7192C10.2501 15.7192 9.36319 15.6037 8.5178 15.3869L8.14524 16.8399C9.11135 17.0877 10.1234 17.2192 11.1651 17.2192V15.7192ZM11.165 3.61829C12.1198 3.61829 13.0439 3.74402 13.9223 3.97938L14.3106 2.53049C13.3067 2.26151 12.252 2.11829 11.165 2.11829V3.61829ZM4.2197 13.1337C3.26474 12.307 2.45949 11.313 1.84971 10.198L0.533653 10.9177C1.23 12.191 2.14889 13.325 3.23791 14.2678L4.2197 13.1337ZM5.94923 14.3528C5.33166 14.004 4.75247 13.5949 4.2197 13.1337L3.23791 14.2678C3.84559 14.7938 4.50644 15.2606 5.21143 15.6588L5.94923 14.3528ZM3.2967 14.3137L5.14822 15.6189L6.01243 14.3928L4.16091 13.0877L3.2967 14.3137ZM13.9223 3.97938C14.7428 4.19922 15.524 4.51491 16.2534 4.91379L16.9731 3.59775C16.1404 3.14232 15.248 2.78167 14.3106 2.53049L13.9223 3.97938Z" fill="black"/>
<path d="M19.6252 1.12777L2.62402 18.1289" stroke="black" stroke-width="1.5" stroke-linecap="round" stroke-linejoin="round"/>
<path d="M7.76465 9.66878C7.76465 7.79089 9.28698 6.26855 11.1649 6.26855" stroke="black" stroke-width="1.5" stroke-linecap="round"/>
</svg>
