<svg width="224" height="39" viewBox="0 0 224 39" fill="none" xmlns="http://www.w3.org/2000/svg">
<mask id="mask0_502_607" style="mask-type:alpha" maskUnits="userSpaceOnUse" x="0" y="0" width="224" height="39">
<path d="M14.2278 30.9131C12.0545 30.9131 10.0929 30.5885 8.34294 29.9394C6.62122 29.2902 5.13942 28.3588 3.89752 27.1451C2.65562 25.9314 1.71009 24.4637 1.06092 22.742C0.411744 20.9921 0.0871582 19.0586 0.0871582 16.9418C0.0871582 14.7685 0.43997 12.8068 1.14559 11.0569C1.85121 9.27871 2.8532 7.75456 4.15154 6.48444C5.44989 5.1861 6.98815 4.19823 8.76632 3.52083C10.5445 2.84343 12.5061 2.50473 14.6512 2.50473C17.0503 2.50473 19.1531 2.91399 20.9595 3.73251C22.7941 4.55104 24.2618 5.70826 25.3626 7.20418C26.4633 8.67188 27.1125 10.4218 27.3101 12.454H23.6267C23.2598 11.1557 22.6671 10.0408 21.8486 9.10936C21.03 8.17794 20.0139 7.4582 18.8003 6.95016C17.5866 6.44211 16.2036 6.18808 14.6512 6.18808C12.5343 6.18808 10.6997 6.65379 9.14735 7.58522C7.59498 8.48841 6.38131 9.75853 5.50634 11.3956C4.63137 13.0044 4.19388 14.8531 4.19388 16.9418C4.19388 19.0022 4.57492 20.8086 5.33699 22.361C6.12729 23.8851 7.2704 25.0847 8.76632 25.9596C10.2905 26.8064 12.1251 27.2298 14.2702 27.2298C15.9354 27.2298 17.389 26.9475 18.6309 26.383C19.901 25.7903 20.9313 24.9718 21.7216 23.9274C22.5401 22.8549 23.1046 21.5707 23.415 20.0747L25.5319 19.8207C25.1085 23.4617 23.8949 26.2278 21.8909 28.1188C19.8869 29.9817 17.3326 30.9131 14.2278 30.9131ZM24.6005 30.4474C24.6005 29.5442 24.6287 28.514 24.6852 27.3568C24.7698 26.1713 24.8545 24.9859 24.9392 23.8004C25.0521 22.5868 25.1509 21.5001 25.2356 20.5405H14.9476V17.2381H28.3685V30.4474H24.6005Z" fill="#0F0F0F"/>
<path d="M34.0533 0.853572H38.1177V30.4474H34.0533V0.853572Z" fill="#0F0F0F"/>
<path d="M60.2247 23.5887H64.0774C63.8516 24.9718 63.3154 26.2137 62.4686 27.3144C61.6219 28.4152 60.507 29.2902 59.124 29.9394C57.7409 30.5885 56.118 30.9131 54.2552 30.9131C52.0536 30.9131 50.092 30.4474 48.3703 29.516C46.6486 28.5846 45.2938 27.3003 44.3059 25.6633C43.318 24.0262 42.8241 22.121 42.8241 19.9477C42.8241 17.7462 43.3039 15.8269 44.2635 14.1898C45.2232 12.5246 46.5498 11.2262 48.2433 10.2948C49.9368 9.36339 51.8702 8.89768 54.0435 8.89768C56.3297 8.89768 58.249 9.34927 59.8014 10.2525C61.3537 11.1557 62.4968 12.4964 63.2307 14.2745C63.9928 16.0245 64.3032 18.2119 64.1621 20.8368H46.8461C46.9873 22.1069 47.3683 23.2359 47.9892 24.2238C48.6384 25.2117 49.4852 25.9879 50.5295 26.5524C51.602 27.1169 52.8298 27.3991 54.2128 27.3991C55.7652 27.3991 57.0635 27.0463 58.1079 26.3407C59.1522 25.635 59.8578 24.7177 60.2247 23.5887ZM54.0858 12.3693C52.2512 12.3693 50.7271 12.8633 49.5134 13.8511C48.2997 14.8108 47.4953 16.095 47.1002 17.7038H60.0977C59.9848 15.9821 59.3639 14.6697 58.2349 13.7665C57.1059 12.835 55.7229 12.3693 54.0858 12.3693Z" fill="#0F0F0F"/>
<path d="M84.7424 23.5887H88.5951C88.3693 24.9718 87.833 26.2137 86.9862 27.3144C86.1395 28.4152 85.0246 29.2902 83.6416 29.9394C82.2586 30.5885 80.6356 30.9131 78.7728 30.9131C76.5712 30.9131 74.6096 30.4474 72.8879 29.516C71.1662 28.5846 69.8114 27.3003 68.8235 25.6633C67.8356 24.0262 67.3417 22.121 67.3417 19.9477C67.3417 17.7462 67.8215 15.8269 68.7812 14.1898C69.7408 12.5246 71.0674 11.2262 72.7609 10.2948C74.4544 9.36339 76.3878 8.89768 78.5611 8.89768C80.8473 8.89768 82.7666 9.34927 84.319 10.2525C85.8714 11.1557 87.0145 12.4964 87.7483 14.2745C88.5104 16.0245 88.8209 18.2119 88.6797 20.8368H71.3638C71.5049 22.1069 71.8859 23.2359 72.5069 24.2238C73.156 25.2117 74.0028 25.9879 75.0471 26.5524C76.1197 27.1169 77.3474 27.3991 78.7305 27.3991C80.2828 27.3991 81.5812 27.0463 82.6255 26.3407C83.6698 25.635 84.3754 24.7177 84.7424 23.5887ZM78.6034 12.3693C76.7688 12.3693 75.2447 12.8633 74.031 13.8511C72.8173 14.8108 72.0129 16.095 71.6178 17.7038H84.6153C84.5024 15.9821 83.8815 14.6697 82.7525 13.7665C81.6235 12.835 80.2405 12.3693 78.6034 12.3693Z" fill="#0F0F0F"/>
<path d="M104.645 2.97044C107.496 2.97044 109.881 3.33736 111.8 4.07121C113.748 4.77684 115.3 5.76471 116.457 7.03483C117.643 8.30495 118.49 9.75853 118.998 11.3956C119.506 13.0326 119.76 14.7685 119.76 16.6031C119.76 18.4095 119.477 20.1453 118.913 21.8106C118.377 23.4758 117.502 24.9577 116.288 26.256C115.103 27.5543 113.55 28.5846 111.631 29.3466C109.712 30.0805 107.383 30.4474 104.645 30.4474H93.6375V2.97044H104.645ZM97.7019 26.764H104.603C106.776 26.764 108.568 26.4818 109.98 25.9173C111.391 25.3246 112.506 24.5484 113.324 23.5887C114.171 22.6009 114.764 21.5001 115.103 20.2864C115.469 19.0728 115.653 17.845 115.653 16.6031C115.653 15.333 115.469 14.1052 115.103 12.9197C114.764 11.7343 114.171 10.6758 113.324 9.74442C112.506 8.78477 111.391 8.03681 109.98 7.50054C108.568 6.93604 106.776 6.65379 104.603 6.65379H97.7019V26.764Z" fill="#0F0F0F"/>
<path d="M140.889 23.5887H144.742C144.516 24.9718 143.98 26.2137 143.133 27.3144C142.286 28.4152 141.171 29.2902 139.788 29.9394C138.405 30.5885 136.782 30.9131 134.919 30.9131C132.718 30.9131 130.756 30.4474 129.035 29.516C127.313 28.5846 125.958 27.3003 124.97 25.6633C123.982 24.0262 123.488 22.121 123.488 19.9477C123.488 17.7462 123.968 15.8269 124.928 14.1898C125.887 12.5246 127.214 11.2262 128.908 10.2948C130.601 9.36339 132.534 8.89768 134.708 8.89768C136.994 8.89768 138.913 9.34927 140.466 10.2525C142.018 11.1557 143.161 12.4964 143.895 14.2745C144.657 16.0245 144.967 18.2119 144.826 20.8368H127.51C127.651 22.1069 128.033 23.2359 128.653 24.2238C129.303 25.2117 130.149 25.9879 131.194 26.5524C132.266 27.1169 133.494 27.3991 134.877 27.3991C136.429 27.3991 137.728 27.0463 138.772 26.3407C139.816 25.635 140.522 24.7177 140.889 23.5887ZM134.75 12.3693C132.915 12.3693 131.391 12.8633 130.178 13.8511C128.964 14.8108 128.16 16.095 127.764 17.7038H140.762C140.649 15.9821 140.028 14.6697 138.899 13.7665C137.77 12.835 136.387 12.3693 134.75 12.3693Z" fill="#0F0F0F"/>
<path d="M148.175 23.5887H151.901C152.042 24.7177 152.55 25.6492 153.425 26.383C154.3 27.0886 155.528 27.4414 157.108 27.4414C158.125 27.4414 158.915 27.3285 159.479 27.1027C160.044 26.8487 160.439 26.51 160.665 26.0867C160.919 25.6633 161.046 25.1976 161.046 24.6895C161.046 24.0403 160.877 23.5464 160.538 23.2077C160.199 22.8408 159.719 22.5444 159.098 22.3186C158.477 22.0646 157.744 21.8247 156.897 21.5989C155.965 21.3449 155.034 21.0485 154.103 20.7098C153.171 20.3711 152.31 19.9618 151.52 19.482C150.758 19.0022 150.137 18.4095 149.657 17.7038C149.206 16.97 148.98 16.0809 148.98 15.0366C148.98 14.1616 149.163 13.3431 149.53 12.581C149.925 11.819 150.476 11.1698 151.181 10.6335C151.915 10.069 152.762 9.64563 153.721 9.36339C154.681 9.05291 155.74 8.89768 156.897 8.89768C158.506 8.89768 159.86 9.19404 160.961 9.78676C162.062 10.3513 162.895 11.1557 163.459 12.2C164.052 13.2443 164.362 14.4439 164.391 15.7987H160.834C160.637 14.6132 160.227 13.7524 159.606 13.2161C158.985 12.6516 158.054 12.3693 156.812 12.3693C155.598 12.3693 154.667 12.6093 154.018 13.0891C153.369 13.5689 153.044 14.2181 153.044 15.0366C153.044 15.6575 153.27 16.1656 153.721 16.5607C154.173 16.9277 154.78 17.2523 155.542 17.5345C156.304 17.8167 157.165 18.1131 158.125 18.4236C159.028 18.7341 159.889 19.0586 160.707 19.3973C161.554 19.7078 162.302 20.0889 162.951 20.5405C163.628 20.9638 164.151 21.5283 164.518 22.2339C164.913 22.9113 165.11 23.7581 165.11 24.7742C165.11 26.0161 164.8 27.1027 164.179 28.0342C163.558 28.9374 162.655 29.643 161.469 30.151C160.312 30.6591 158.901 30.9131 157.235 30.9131C155.711 30.9131 154.413 30.7296 153.34 30.3627C152.296 29.9958 151.407 29.516 150.673 28.9233C149.968 28.3305 149.417 27.7096 149.022 27.0604C148.655 26.383 148.401 25.7338 148.26 25.1129C148.147 24.4919 148.119 23.9839 148.175 23.5887Z" fill="#0F0F0F"/>
<path d="M174.235 0.599548V4.9603H169.196V0.599548H174.235ZM169.704 9.32105H173.727V30.4474H169.704V9.32105Z" fill="#0F0F0F"/>
<path d="M187.964 27.1451C186.214 27.1451 184.605 26.7923 183.137 26.0867C181.67 25.381 180.498 24.3508 179.623 22.996C178.777 21.6412 178.353 20.0042 178.353 18.0849C178.353 16.1938 178.777 14.5709 179.623 13.2161C180.47 11.8331 181.613 10.7746 183.053 10.0408C184.52 9.27871 186.157 8.89768 187.964 8.89768C188.5 8.89768 189.008 8.94001 189.488 9.02468C189.968 9.08114 190.434 9.17992 190.885 9.32105H200.115V13.1314C198.845 13.1314 197.56 12.9197 196.262 12.4964C194.992 12.073 193.877 11.6214 192.917 11.1416L192.79 10.9299C193.75 11.4379 194.583 12.0589 195.288 12.7927C195.994 13.4983 196.53 14.3027 196.897 15.2059C197.292 16.0809 197.49 17.0688 197.49 18.1696C197.49 20.0324 197.066 21.6412 196.22 22.996C195.401 24.3508 194.258 25.381 192.79 26.0867C191.351 26.7923 189.742 27.1451 187.964 27.1451ZM194.441 38.9995V38.0258C194.441 36.5863 194.046 35.5561 193.256 34.9352C192.466 34.3142 191.308 34.0037 189.784 34.0037H184.831C183.787 34.0037 182.897 33.9191 182.164 33.7497C181.43 33.5804 180.823 33.3263 180.343 32.9876C179.863 32.6772 179.51 32.282 179.285 31.8022C179.059 31.3506 178.946 30.8425 178.946 30.278C178.946 29.1773 179.285 28.3446 179.962 27.7801C180.639 27.2156 181.5 26.8628 182.545 26.7217C183.589 26.5524 184.647 26.5382 185.72 26.6794L187.964 27.1451C186.355 27.2298 185.127 27.385 184.28 27.6108C183.434 27.8366 183.01 28.3164 183.01 29.0503C183.01 29.4736 183.18 29.8123 183.518 30.0664C183.857 30.3204 184.337 30.4474 184.958 30.4474H190.123C191.732 30.4474 193.157 30.645 194.399 31.0401C195.669 31.4635 196.657 32.155 197.363 33.1147C198.097 34.1025 198.463 35.4432 198.463 37.1367V38.9995H194.441ZM187.964 23.7158C188.98 23.7158 189.897 23.5041 190.716 23.0807C191.562 22.6291 192.24 21.994 192.748 21.1755C193.256 20.3288 193.51 19.3127 193.51 18.1272C193.51 16.9136 193.256 15.8833 192.748 15.0366C192.268 14.1616 191.605 13.5124 190.758 13.0891C189.911 12.6375 188.98 12.4117 187.964 12.4117C186.948 12.4117 186.002 12.6375 185.127 13.0891C184.28 13.5124 183.603 14.1475 183.095 14.9943C182.587 15.841 182.333 16.8853 182.333 18.1272C182.333 19.3127 182.587 20.3288 183.095 21.1755C183.603 21.994 184.28 22.6291 185.127 23.0807C185.974 23.5041 186.919 23.7158 187.964 23.7158Z" fill="#0F0F0F"/>
<path d="M203.972 9.32105H208.036V30.4474H203.972V9.32105ZM216.08 8.89768C217.266 8.89768 218.338 9.06702 219.298 9.40572C220.257 9.74442 221.076 10.2525 221.753 10.9299C222.431 11.579 222.953 12.3976 223.32 13.3854C223.715 14.3451 223.913 15.4459 223.913 16.6878V30.4474H219.89V17.5768C219.89 15.9116 219.481 14.6697 218.663 13.8511C217.872 13.0044 216.659 12.581 215.022 12.581C213.752 12.581 212.594 12.8774 211.55 13.4701C210.506 14.0628 209.645 14.8531 208.967 15.841C208.318 16.8007 207.923 17.8873 207.782 19.101L207.74 16.7724C207.881 15.6434 208.177 14.5991 208.629 13.6395C209.109 12.6798 209.701 11.8472 210.407 11.1416C211.141 10.4077 211.988 9.85732 212.947 9.4904C213.907 9.09525 214.951 8.89768 216.08 8.89768Z" fill="#0F0F0F"/>
</mask>
<g mask="url(#mask0_502_607)">
<rect x="-17.1445" y="109.03" width="185.047" height="258.87" transform="rotate(-90 -17.1445 109.03)" fill="black"/>
</g>
</svg>
