<svg width="25" height="25" viewBox="0 0 25 25" fill="none" xmlns="http://www.w3.org/2000/svg">
<path fill-rule="evenodd" clip-rule="evenodd" d="M23.4128 17.7889C23.9637 16.3039 24.2391 14.6392 24.2391 12.7949C24.2391 10.1602 23.4487 7.99253 21.8679 6.29193C20.6609 5.01291 19.034 4.11325 16.987 3.59296C17.3742 3.62831 17.7796 3.66569 18.2032 3.7051L21.2212 3.92067C22.2032 3.96858 23.0775 3.99253 23.8439 3.99253V0.794922L12.6343 0.794922V6.47966C12.4858 6.46923 12.3359 6.46393 12.1848 6.46393C8.6912 6.46393 5.85911 9.29602 5.85911 12.7896C5.85911 16.2831 8.6912 19.1152 12.1848 19.1152C15.6783 19.1152 18.5104 16.2831 18.5104 12.7896C18.5104 10.4852 17.2782 8.4686 15.4367 7.36274V5.08896C16.5386 5.36531 17.4967 5.8142 18.311 6.43564C19.1972 7.1063 19.8918 7.98055 20.3948 9.0584C20.8739 10.1123 21.1134 11.3458 21.1134 12.759C21.1134 14.5794 20.7541 16.1362 20.0355 17.4297C19.293 18.6991 18.2751 19.6692 16.9816 20.3398C15.6643 20.9865 14.1313 21.3099 12.3828 21.3099C10.6104 21.3099 9.04153 20.9386 7.67626 20.1961C6.28704 19.4536 5.20919 18.4237 4.44273 17.1063C3.65231 15.7889 3.2571 14.232 3.2571 12.4356C3.2571 11.1183 3.47267 9.94462 3.9038 8.91468C4.33494 7.88474 4.94572 7.02247 5.73614 6.32786C6.52656 5.63325 7.47267 5.13025 8.57446 4.81887V1.69313C6.84991 1.86079 5.36488 2.41169 4.11937 3.34582C2.84991 4.27995 1.86787 5.52546 1.17326 7.08235C0.478653 8.61528 0.131348 10.3997 0.131348 12.4356C0.131348 14.256 0.418773 15.9207 0.993623 17.4297C1.56847 18.9386 2.4068 20.244 3.50859 21.3458C4.58644 22.4476 5.87985 23.2979 7.38883 23.8967C8.87386 24.4955 10.5385 24.7949 12.3828 24.7949C14.1793 24.7949 15.82 24.5195 17.305 23.9686C18.7661 23.4177 20.0116 22.6153 21.0415 21.5614C22.0715 20.5075 22.8619 19.25 23.4128 17.7889Z" fill="#FAFAFA"/>
</svg>
