<svg width="41" height="41" viewBox="0 0 41 41" fill="none" xmlns="http://www.w3.org/2000/svg">
<circle cx="20.7603" cy="20.8223" r="19.5" stroke="#5F5956"/>
<path d="M20.76 16.3057C19.8684 16.3057 18.9968 16.5701 18.2555 17.0655C17.5142 17.5608 16.9364 18.2649 16.5952 19.0886C16.254 19.9123 16.1647 20.8187 16.3387 21.6932C16.5126 22.5676 16.9419 23.3709 17.5724 24.0013C18.2028 24.6318 19.0061 25.0611 19.8805 25.235C20.755 25.409 21.6614 25.3197 22.4851 24.9785C23.3088 24.6373 24.0129 24.0595 24.5082 23.3182C25.0036 22.5769 25.268 21.7053 25.268 20.8137C25.2694 20.2213 25.1538 19.6345 24.9278 19.0869C24.7017 18.5393 24.3697 18.0418 23.9508 17.6229C23.5319 17.204 23.0344 16.872 22.4868 16.6459C21.9392 16.4199 21.3524 16.3043 20.76 16.3057V16.3057ZM20.76 23.7494C20.1794 23.7494 19.6118 23.5772 19.129 23.2546C18.6463 22.9321 18.27 22.4736 18.0478 21.9371C17.8256 21.4007 17.7675 20.8104 17.8807 20.241C17.994 19.6715 18.2736 19.1484 18.6842 18.7379C19.0947 18.3273 19.6178 18.0477 20.1873 17.9344C20.7567 17.8212 21.347 17.8793 21.8834 18.1015C22.4199 18.3237 22.8783 18.7 23.2009 19.1827C23.5235 19.6655 23.6957 20.2331 23.6957 20.8137C23.6957 21.5923 23.3864 22.339 22.8358 22.8895C22.2853 23.4401 21.5386 23.7494 20.76 23.7494ZM26.5104 16.1188C26.5104 16.3363 26.4459 16.5489 26.3251 16.7297C26.2043 16.9105 26.0326 17.0514 25.8317 17.1346C25.6307 17.2179 25.4097 17.2396 25.1964 17.1972C24.9831 17.1548 24.7872 17.0501 24.6334 16.8963C24.4797 16.7425 24.3749 16.5466 24.3325 16.3333C24.2901 16.1201 24.3119 15.899 24.3951 15.6981C24.4783 15.4972 24.6192 15.3254 24.8 15.2046C24.9809 15.0838 25.1934 15.0193 25.4109 15.0193C25.7025 15.0193 25.9822 15.1352 26.1884 15.3414C26.3946 15.5476 26.5104 15.8272 26.5104 16.1188ZM29.49 17.2183C29.522 15.8515 29.0122 14.5274 28.0717 13.535C27.0846 12.5825 25.7599 12.0605 24.3884 12.0837C22.959 12.0177 18.561 12.0177 17.1316 12.0837C15.7652 12.0541 14.442 12.5636 13.4483 13.502C12.5078 14.4944 11.998 15.8185 12.0299 17.1853C11.964 18.6147 11.964 23.0127 12.0299 24.4421C11.998 25.8089 12.5078 27.133 13.4483 28.1254C14.442 29.0638 15.7652 29.5733 17.1316 29.5438C18.583 29.6317 22.937 29.6317 24.3884 29.5438C25.7552 29.5757 27.0793 29.0659 28.0717 28.1254C29.0122 27.133 29.522 25.8089 29.49 24.4421C29.556 23.0127 29.556 18.6147 29.49 17.1853V17.2183ZM27.6209 26.0144C27.4716 26.3925 27.2462 26.736 26.9588 27.0235C26.6713 27.3109 26.3278 27.5363 25.9496 27.6856C24.2428 28.0307 22.4978 28.149 20.76 28.0374C19.0258 28.1492 17.2845 28.0309 15.5813 27.6856C15.2032 27.5363 14.8597 27.3109 14.5722 27.0235C14.2847 26.736 14.0594 26.3925 13.9101 26.0144C13.4483 24.8489 13.5473 22.1001 13.5473 20.8247C13.5473 19.5493 13.4483 16.7895 13.9101 15.635C14.0552 15.2532 14.2789 14.906 14.5668 14.6162C14.8548 14.3264 15.2004 14.1004 15.5813 13.9528C17.2845 13.6075 19.0258 13.4892 20.76 13.601C22.4978 13.4894 24.2428 13.6077 25.9496 13.9528C26.3278 14.1021 26.6713 14.3275 26.9588 14.6149C27.2462 14.9024 27.4716 15.2459 27.6209 15.6241C28.0827 16.7895 27.9727 19.5383 27.9727 20.8137C27.9727 22.0891 28.0827 24.8489 27.6209 26.0034V26.0144Z" fill="#5F5956"/>
</svg>
