<svg width="244" height="311" viewBox="0 0 244 311" fill="none" xmlns="http://www.w3.org/2000/svg">
<g opacity="0.2">
<path d="M20.7738 260.193L2.88552 250.45C1.95802 249.945 2.0884 248.574 3.09452 248.253L93.9158 219.254C94.8581 218.953 95.7392 219.857 95.4142 220.791L65.1236 307.837C64.7882 308.8 63.4793 308.932 62.9584 308.055L41.5486 271.988C41.2731 271.524 40.8777 271.143 40.4038 270.885L36.0393 268.508" stroke="#0F0F0F" stroke-width="4" stroke-linecap="round"/>
<path d="M50.5005 261.124L41.6992 269.773" stroke="#0F0F0F" stroke-width="4" stroke-linecap="round" stroke-linejoin="round"/>
</g>
<g opacity="0.4">
<path d="M115.544 179.453L100.338 172.273C99.3815 171.821 99.4273 170.446 100.412 170.068L174.777 141.554C175.699 141.2 176.634 142.053 176.368 143.004L155.549 217.148C155.274 218.129 153.975 218.334 153.401 217.488L133.757 188.519C133.454 188.071 133.036 187.713 132.547 187.482L128.856 185.74" stroke="#0F0F0F" stroke-width="3.6" stroke-linecap="round"/>
<path d="M141.231 179.096L134.195 186.638" stroke="#0F0F0F" stroke-width="3.6" stroke-linecap="round" stroke-linejoin="round"/>
</g>
<g opacity="0.6">
<path d="M183.449 108.352L170.951 108.221C169.887 108.21 169.323 106.975 170.041 106.227L211.124 63.3812C211.801 62.6751 213.034 63.0373 213.221 63.9971L224.36 121.214C224.554 122.213 223.451 122.947 222.548 122.42L199.466 108.935C198.992 108.658 198.453 108.509 197.905 108.503L194.919 108.472" stroke="#0F0F0F" stroke-width="3" stroke-linecap="round"/>
<path d="M201.709 100.213L199.435 107.239" stroke="#0F0F0F" stroke-width="3" stroke-linecap="round" stroke-linejoin="round"/>
</g>
<g opacity="0.92">
<path d="M204.545 37.2091L197.973 41.0925C197.073 41.6241 195.967 40.895 196.156 39.8954L203.25 2.41129C203.431 1.45043 204.662 1.08201 205.343 1.78473L232.373 29.6912C233.094 30.436 232.537 31.6742 231.473 31.6905L214.256 31.9535C213.708 31.9619 213.17 32.1136 212.698 32.3925L211.201 33.277" stroke="#0F0F0F" stroke-width="2.4" stroke-linecap="round"/>
<path d="M211.133 26.7019L213.167 31.325" stroke="#0F0F0F" stroke-width="2.4" stroke-linecap="round" stroke-linejoin="round"/>
</g>
</svg>
