<svg width="46" height="45" viewBox="0 0 46 45" fill="none" xmlns="http://www.w3.org/2000/svg">
<path fill-rule="evenodd" clip-rule="evenodd" d="M23.6226 30.194L30.1734 23.6463H13.1561C12.8627 23.6463 12.5813 23.5297 12.3738 23.3223C12.1664 23.1148 12.0498 22.8334 12.0498 22.54C12.0498 22.2466 12.1664 21.9653 12.3738 21.7578C12.5813 21.5503 12.8627 21.4338 13.1561 21.4338H30.1734L23.6225 14.886C23.5197 14.7831 23.4381 14.661 23.3824 14.5266C23.3267 14.3921 23.298 14.248 23.298 14.1025C23.298 13.957 23.3267 13.8129 23.3824 13.6785C23.4381 13.5441 23.5197 13.4219 23.6226 13.319C23.7255 13.2162 23.8476 13.1345 23.982 13.0789C24.1165 13.0232 24.2606 12.9945 24.4061 12.9945C24.5516 12.9945 24.6957 13.0232 24.8301 13.0789C24.9645 13.1345 25.0867 13.2162 25.1896 13.319L33.6273 21.7568C33.7304 21.8596 33.8121 21.9816 33.8679 22.116C33.9236 22.2504 33.9523 22.3945 33.9523 22.54C33.9523 22.6855 33.9236 22.8296 33.8679 22.964C33.8121 23.0984 33.7301 23.2208 33.6271 23.3235L25.1896 31.761C25.0867 31.8639 24.9645 31.9455 24.8301 32.0012C24.6957 32.0569 24.5516 32.0856 24.4061 32.0856C24.2606 32.0856 24.1165 32.0569 23.982 32.0012C23.8476 31.9455 23.7255 31.8639 23.6226 31.761C23.5197 31.6581 23.4381 31.536 23.3824 31.4016C23.3267 31.2671 23.298 31.123 23.298 30.9775C23.298 30.832 23.3267 30.6879 23.3824 30.5535C23.4381 30.4191 23.5197 30.2969 23.6226 30.194ZM3.01232 22.54C3.01232 27.8411 5.11814 32.9249 8.86652 36.6733C12.6149 40.4217 17.6988 42.5275 22.9998 42.5275C28.3008 42.5275 33.3847 40.4217 37.1331 36.6733C40.8815 32.9249 42.9873 27.8411 42.9873 22.54C42.9873 17.239 40.8815 12.1551 37.1331 8.40674C33.3847 4.65836 28.3008 2.55254 22.9998 2.55254C17.6988 2.55254 12.6149 4.65836 8.86652 8.40674C5.11814 12.1551 3.01232 17.239 3.01232 22.54ZM45.1998 22.54C45.1998 28.4278 42.8609 34.0745 38.6976 38.2378C34.5343 42.4011 28.8876 44.74 22.9998 44.74C17.112 44.74 11.4654 42.4011 7.30205 38.2378C3.13874 34.0745 0.799817 28.4278 0.799817 22.54C0.799817 16.6522 3.13874 11.0056 7.30205 6.84227C11.4654 2.67896 17.112 0.340039 22.9998 0.340039C28.8876 0.340039 34.5343 2.67896 38.6976 6.84227C42.8609 11.0056 45.1998 16.6522 45.1998 22.54Z" fill="black"/>
</svg>
