<svg width="435" height="75" viewBox="0 0 435 75" fill="none" xmlns="http://www.w3.org/2000/svg">
<path d="M28.3564 58.7657C24.1471 58.7657 20.3477 58.137 16.9584 56.8797C13.6237 55.6224 10.7537 53.8184 8.34838 51.4677C5.94305 49.117 4.11172 46.2744 2.85438 42.9397C1.59705 39.5504 0.968384 35.8057 0.968384 31.7057C0.968384 27.4964 1.65172 23.697 3.01838 20.3077C4.38505 16.8637 6.32572 13.9117 8.84038 11.4517C11.3551 8.93704 14.3344 7.02371 17.7784 5.71171C21.2224 4.39971 25.0217 3.74371 29.1764 3.74371C33.8231 3.74371 37.8957 4.53638 41.3944 6.12171C44.9477 7.70704 47.7904 9.94838 49.9224 12.8457C52.0544 15.6884 53.3117 19.0777 53.6944 23.0137H46.5604C45.8497 20.499 44.7017 18.3397 43.1164 16.5357C41.5311 14.7317 39.5631 13.3377 37.2124 12.3537C34.8617 11.3697 32.1831 10.8777 29.1764 10.8777C25.0764 10.8777 21.5231 11.7797 18.5164 13.5837C15.5097 15.333 13.1591 17.793 11.4644 20.9637C9.76972 24.0797 8.92238 27.6604 8.92238 31.7057C8.92238 35.6964 9.66038 39.195 11.1364 42.2017C12.6671 45.1537 14.8811 47.477 17.7784 49.1717C20.7304 50.8117 24.2837 51.6317 28.4384 51.6317C31.6637 51.6317 34.4791 51.085 36.8844 49.9917C39.3444 48.8437 41.3397 47.2584 42.8704 45.2357C44.4557 43.1584 45.5491 40.671 46.1504 37.7737L50.2504 37.2817C49.4304 44.3337 47.0797 49.691 43.1984 53.3537C39.3171 56.9617 34.3697 58.7657 28.3564 58.7657ZM48.4464 57.8637C48.4464 56.1144 48.5011 54.119 48.6104 51.8777C48.7744 49.5817 48.9384 47.2857 49.1024 44.9897C49.3211 42.639 49.5124 40.5344 49.6764 38.6757H29.7504V32.2797H55.7444V57.8637H48.4464Z" fill="black"/>
<path d="M66.7548 0.54571H74.6268V57.8637H66.7548V0.54571Z" fill="black"/>
<path d="M117.444 44.5797H124.906C124.469 47.2584 123.43 49.6637 121.79 51.7957C120.15 53.9277 117.991 55.6224 115.312 56.8797C112.634 58.137 109.49 58.7657 105.882 58.7657C101.618 58.7657 97.8189 57.8637 94.4843 56.0597C91.1496 54.2557 88.5256 51.7684 86.6123 48.5977C84.6989 45.4271 83.7423 41.737 83.7423 37.5277C83.7423 33.2637 84.6716 29.5464 86.5303 26.3757C88.3889 23.1504 90.9583 20.6357 94.2383 18.8317C97.5183 17.0277 101.263 16.1257 105.472 16.1257C109.9 16.1257 113.618 17.0004 116.624 18.7497C119.631 20.499 121.845 23.0957 123.266 26.5397C124.742 29.929 125.344 34.1657 125.07 39.2497H91.5323C91.8056 41.7097 92.5436 43.8964 93.7463 45.8097C95.0036 47.723 96.6436 49.2264 98.6663 50.3197C100.744 51.4131 103.122 51.9597 105.8 51.9597C108.807 51.9597 111.322 51.2764 113.344 49.9097C115.367 48.543 116.734 46.7664 117.444 44.5797ZM105.554 22.8497C102.001 22.8497 99.0489 23.8064 96.6983 25.7197C94.3476 27.5784 92.7896 30.0657 92.0243 33.1817H117.198C116.98 29.847 115.777 27.305 113.59 25.5557C111.404 23.7517 108.725 22.8497 105.554 22.8497Z" fill="black"/>
<path d="M164.931 44.5797H172.393C171.955 47.2584 170.917 49.6637 169.277 51.7957C167.637 53.9277 165.477 55.6224 162.799 56.8797C160.12 58.137 156.977 58.7657 153.369 58.7657C149.105 58.7657 145.305 57.8637 141.971 56.0597C138.636 54.2557 136.012 51.7684 134.099 48.5977C132.185 45.4271 131.229 41.737 131.229 37.5277C131.229 33.2637 132.158 29.5464 134.017 26.3757C135.875 23.1504 138.445 20.6357 141.725 18.8317C145.005 17.0277 148.749 16.1257 152.959 16.1257C157.387 16.1257 161.104 17.0004 164.111 18.7497C167.117 20.499 169.331 23.0957 170.753 26.5397C172.229 29.929 172.83 34.1657 172.557 39.2497H139.019C139.292 41.7097 140.03 43.8964 141.233 45.8097C142.49 47.723 144.13 49.2264 146.153 50.3197C148.23 51.4131 150.608 51.9597 153.287 51.9597C156.293 51.9597 158.808 51.2764 160.831 49.9097C162.853 48.543 164.22 46.7664 164.931 44.5797ZM153.041 22.8497C149.487 22.8497 146.535 23.8064 144.185 25.7197C141.834 27.5784 140.276 30.0657 139.511 33.1817H164.685C164.466 29.847 163.263 27.305 161.077 25.5557C158.89 23.7517 156.211 22.8497 153.041 22.8497Z" fill="black"/>
<path d="M203.479 4.64571C209 4.64571 213.62 5.35638 217.337 6.77771C221.109 8.14438 224.116 10.0577 226.357 12.5177C228.653 14.9777 230.293 17.793 231.277 20.9637C232.261 24.1344 232.753 27.4964 232.753 31.0497C232.753 34.5484 232.206 37.9104 231.113 41.1357C230.074 44.361 228.38 47.231 226.029 49.7457C223.733 52.2604 220.726 54.2557 217.009 55.7317C213.292 57.153 208.782 57.8637 203.479 57.8637H182.159V4.64571H203.479ZM190.031 50.7297H203.397C207.606 50.7297 211.078 50.183 213.811 49.0897C216.544 47.9417 218.704 46.4384 220.289 44.5797C221.929 42.6664 223.077 40.5344 223.733 38.1837C224.444 35.833 224.799 33.455 224.799 31.0497C224.799 28.5897 224.444 26.2117 223.733 23.9157C223.077 21.6197 221.929 19.5697 220.289 17.7657C218.704 15.907 216.544 14.4584 213.811 13.4197C211.078 12.3264 207.606 11.7797 203.397 11.7797H190.031V50.7297Z" fill="black"/>
<path d="M273.677 44.5797H281.139C280.701 47.2584 279.663 49.6637 278.023 51.7957C276.383 53.9277 274.223 55.6224 271.545 56.8797C268.866 58.137 265.723 58.7657 262.115 58.7657C257.851 58.7657 254.051 57.8637 250.717 56.0597C247.382 54.2557 244.758 51.7684 242.845 48.5977C240.931 45.4271 239.975 41.737 239.975 37.5277C239.975 33.2637 240.904 29.5464 242.763 26.3757C244.621 23.1504 247.191 20.6357 250.471 18.8317C253.751 17.0277 257.495 16.1257 261.705 16.1257C266.133 16.1257 269.85 17.0004 272.857 18.7497C275.863 20.499 278.077 23.0957 279.499 26.5397C280.975 29.929 281.576 34.1657 281.303 39.2497H247.765C248.038 41.7097 248.776 43.8964 249.979 45.8097C251.236 47.723 252.876 49.2264 254.899 50.3197C256.976 51.4131 259.354 51.9597 262.033 51.9597C265.039 51.9597 267.554 51.2764 269.577 49.9097C271.599 48.543 272.966 46.7664 273.677 44.5797ZM261.787 22.8497C258.233 22.8497 255.281 23.8064 252.931 25.7197C250.58 27.5784 249.022 30.0657 248.257 33.1817H273.431C273.212 29.847 272.009 27.305 269.823 25.5557C267.636 23.7517 264.957 22.8497 261.787 22.8497Z" fill="black"/>
<path d="M287.789 44.5797H295.005C295.278 46.7664 296.262 48.5704 297.957 49.9917C299.652 51.3584 302.03 52.0417 305.091 52.0417C307.059 52.0417 308.59 51.8231 309.683 51.3857C310.776 50.8937 311.542 50.2377 311.979 49.4177C312.471 48.5977 312.717 47.6957 312.717 46.7117C312.717 45.4544 312.389 44.4977 311.733 43.8417C311.077 43.131 310.148 42.557 308.945 42.1197C307.742 41.6277 306.321 41.163 304.681 40.7257C302.877 40.2337 301.073 39.6597 299.269 39.0037C297.465 38.3477 295.798 37.555 294.267 36.6257C292.791 35.6964 291.588 34.5484 290.659 33.1817C289.784 31.7604 289.347 30.0384 289.347 28.0157C289.347 26.321 289.702 24.7357 290.413 23.2597C291.178 21.7837 292.244 20.5264 293.611 19.4877C295.032 18.3944 296.672 17.5744 298.531 17.0277C300.39 16.4264 302.44 16.1257 304.681 16.1257C307.797 16.1257 310.421 16.6997 312.553 17.8477C314.685 18.941 316.298 20.499 317.391 22.5217C318.539 24.5444 319.14 26.8677 319.195 29.4917H312.307C311.924 27.1957 311.132 25.5284 309.929 24.4897C308.726 23.3964 306.922 22.8497 304.517 22.8497C302.166 22.8497 300.362 23.3144 299.105 24.2437C297.848 25.173 297.219 26.4304 297.219 28.0157C297.219 29.2184 297.656 30.2024 298.531 30.9677C299.406 31.6784 300.581 32.307 302.057 32.8537C303.533 33.4004 305.2 33.9744 307.059 34.5757C308.808 35.177 310.476 35.8057 312.061 36.4617C313.701 37.063 315.15 37.801 316.407 38.6757C317.719 39.4957 318.73 40.589 319.441 41.9557C320.206 43.2677 320.589 44.9077 320.589 46.8757C320.589 49.2811 319.988 51.3857 318.785 53.1897C317.582 54.939 315.833 56.3057 313.537 57.2897C311.296 58.2737 308.562 58.7657 305.337 58.7657C302.385 58.7657 299.87 58.4104 297.793 57.6997C295.77 56.989 294.048 56.0597 292.627 54.9117C291.26 53.7637 290.194 52.5611 289.429 51.3037C288.718 49.9917 288.226 48.7344 287.953 47.5317C287.734 46.329 287.68 45.345 287.789 44.5797Z" fill="black"/>
<path d="M338.261 0.0537109V8.49971H328.503V0.0537109H338.261ZM329.487 16.9457H337.277V57.8637H329.487V16.9457Z" fill="black"/>
<path d="M364.852 51.4677C361.463 51.4677 358.347 50.7844 355.504 49.4177C352.662 48.0511 350.393 46.0557 348.698 43.4317C347.058 40.8077 346.238 37.6371 346.238 33.9197C346.238 30.257 347.058 27.1137 348.698 24.4897C350.338 21.811 352.552 19.761 355.34 18.3397C358.183 16.8637 361.354 16.1257 364.852 16.1257C365.891 16.1257 366.875 16.2077 367.804 16.3717C368.734 16.481 369.636 16.6724 370.51 16.9457H388.386V24.3257C385.926 24.3257 383.439 23.9157 380.924 23.0957C378.464 22.2757 376.305 21.401 374.446 20.4717L374.2 20.0617C376.059 21.0457 377.672 22.2484 379.038 23.6697C380.405 25.0364 381.444 26.5944 382.154 28.3437C382.92 30.0384 383.302 31.9517 383.302 34.0837C383.302 37.6917 382.482 40.8077 380.842 43.4317C379.257 46.0557 377.043 48.0511 374.2 49.4177C371.412 50.7844 368.296 51.4677 364.852 51.4677ZM377.398 74.4277V72.5417C377.398 69.7537 376.633 67.7584 375.102 66.5557C373.572 65.3531 371.33 64.7517 368.378 64.7517H358.784C356.762 64.7517 355.04 64.5877 353.618 64.2597C352.197 63.9317 351.022 63.4397 350.092 62.7837C349.163 62.1824 348.48 61.4171 348.042 60.4877C347.605 59.613 347.386 58.629 347.386 57.5357C347.386 55.4037 348.042 53.791 349.354 52.6977C350.666 51.6044 352.334 50.921 354.356 50.6477C356.379 50.3197 358.429 50.2924 360.506 50.5657L364.852 51.4677C361.736 51.6317 359.358 51.9324 357.718 52.3697C356.078 52.807 355.258 53.7364 355.258 55.1577C355.258 55.9777 355.586 56.6337 356.242 57.1257C356.898 57.6177 357.828 57.8637 359.03 57.8637H369.034C372.15 57.8637 374.911 58.2464 377.316 59.0117C379.776 59.8317 381.69 61.171 383.056 63.0297C384.478 64.9431 385.188 67.5397 385.188 70.8197V74.4277H377.398ZM364.852 44.8257C366.82 44.8257 368.597 44.4157 370.182 43.5957C371.822 42.721 373.134 41.491 374.118 39.9057C375.102 38.2657 375.594 36.2977 375.594 34.0017C375.594 31.651 375.102 29.6557 374.118 28.0157C373.189 26.321 371.904 25.0637 370.264 24.2437C368.624 23.369 366.82 22.9317 364.852 22.9317C362.884 22.9317 361.053 23.369 359.358 24.2437C357.718 25.0637 356.406 26.2937 355.422 27.9337C354.438 29.5737 353.946 31.5964 353.946 34.0017C353.946 36.2977 354.438 38.2657 355.422 39.9057C356.406 41.491 357.718 42.721 359.358 43.5957C360.998 44.4157 362.83 44.8257 364.852 44.8257Z" fill="black"/>
<path d="M395.857 16.9457H403.729V57.8637H395.857V16.9457ZM419.309 16.1257C421.605 16.1257 423.682 16.4537 425.541 17.1097C427.399 17.7657 428.985 18.7497 430.297 20.0617C431.609 21.319 432.62 22.9044 433.331 24.8177C434.096 26.6764 434.479 28.8084 434.479 31.2137V57.8637H426.689V32.9357C426.689 29.7104 425.896 27.305 424.311 25.7197C422.78 24.0797 420.429 23.2597 417.259 23.2597C414.799 23.2597 412.557 23.8337 410.535 24.9817C408.512 26.1297 406.845 27.6604 405.533 29.5737C404.275 31.4324 403.51 33.537 403.237 35.8877L403.155 31.3777C403.428 29.191 404.002 27.1684 404.877 25.3097C405.806 23.451 406.954 21.8384 408.321 20.4717C409.742 19.0504 411.382 17.9844 413.241 17.2737C415.099 16.5084 417.122 16.1257 419.309 16.1257Z" fill="black"/>
</svg>
