<svg width="52" height="52" viewBox="0 0 52 52" fill="none" xmlns="http://www.w3.org/2000/svg">
<path d="M12.4903 46.1276C13.02 46.477 13.5642 46.8062 14.1219 47.1139C17.5741 49.0186 21.5425 50.1025 25.7642 50.1025C39.0932 50.1025 49.8984 39.2973 49.8984 25.9683C49.8984 12.6393 39.0932 1.83398 25.7642 1.83398C12.4352 1.83398 1.62988 12.6393 1.62988 25.9683C1.62988 30.2045 2.72133 34.1858 4.63835 37.6463C4.94037 38.1915 5.26289 38.7238 5.60485 39.2421" stroke="#171717" stroke-width="3" stroke-linecap="round"/>
<path d="M31.7979 23.555L34.0452 25.0532C34.6983 25.4886 34.6983 26.4483 34.0452 26.8837L22.6477 34.482C21.9167 34.9693 20.9375 34.4453 20.9375 33.5667V18.2575C20.9375 17.4025 21.8703 16.8744 22.6034 17.3143L25.4627 19.0298" stroke="#171717" stroke-width="3" stroke-linecap="round"/>
</svg>
