<svg width="49" height="49" viewBox="0 0 49 49" fill="none" xmlns="http://www.w3.org/2000/svg">
<path d="M44.7279 25.9179V32.1022C44.7279 40.3865 38.0122 47.1022 29.7279 47.1022H17.3594C9.07511 47.1022 2.35938 40.3865 2.35938 32.1022V19.7337C2.35938 11.4494 9.07511 4.73364 17.3594 4.73364H23.5437" stroke="black" stroke-width="3" stroke-linecap="round"/>
<path d="M26.5933 11.5002L34.5091 3.57239C36.4603 1.61829 39.6249 1.61709 41.5775 3.56971L45.0726 7.06484C47.0086 9.0008 47.0287 12.1349 45.1177 14.0956L28.4034 31.2446C26.7101 32.9819 24.3877 33.9616 21.9627 33.9615L16.246 33.9612C15.3931 33.9612 14.712 33.2503 14.7479 32.3975L14.7978 31.2124L14.9134 28.4637L15.029 25.715V25.715C15.1034 23.9472 15.8381 22.2717 17.0878 21.0202L20.869 17.2332" stroke="black" stroke-width="3" stroke-linecap="round"/>
<path d="M36.9087 13.2236L40.8774 17.1924" stroke="black" stroke-width="3" stroke-linecap="round" stroke-linejoin="round"/>
</svg>
