<svg width="249" height="47" viewBox="0 0 249 47" fill="none" xmlns="http://www.w3.org/2000/svg">
<path d="M77.9381 32.5232C76.1706 32.5232 74.5752 32.2592 73.1519 31.7312C71.7517 31.2032 70.5465 30.4457 69.5365 29.4586C68.5264 28.4716 67.7574 27.2779 67.2295 25.8776C66.7015 24.4544 66.4375 22.8819 66.4375 21.1603C66.4375 19.3927 66.7244 17.7973 67.2983 16.3741C67.8722 14.9279 68.6871 13.6883 69.7431 12.6553C70.799 11.5994 72.0501 10.7959 73.4963 10.245C74.9425 9.69409 76.5378 9.41863 78.2825 9.41863C80.2337 9.41863 81.9438 9.75148 83.413 10.4172C84.9051 11.0829 86.0987 12.0241 86.994 13.2407C87.8893 14.4344 88.4172 15.8576 88.5779 17.5104H85.5823C85.2838 16.4544 84.8018 15.5477 84.1361 14.7902C83.4704 14.0327 82.644 13.4473 81.6569 13.0341C80.6698 12.6209 79.545 12.4143 78.2825 12.4143C76.5608 12.4143 75.0687 12.7931 73.8062 13.5506C72.5436 14.2852 71.5565 15.3181 70.8449 16.6496C70.1333 17.958 69.7775 19.4616 69.7775 21.1603C69.7775 22.836 70.0874 24.3052 70.7072 25.5677C71.3499 26.8073 72.2796 27.7829 73.4963 28.4945C74.7359 29.1832 76.228 29.5275 77.9726 29.5275C79.3269 29.5275 80.5091 29.298 81.5192 28.8388C82.5521 28.3568 83.39 27.6911 84.0328 26.8417C84.6985 25.9694 85.1576 24.925 85.4101 23.7083L87.1317 23.5017C86.7874 26.463 85.8003 28.7126 84.1705 30.2506C82.5407 31.7656 80.4632 32.5232 77.9381 32.5232ZM86.3742 32.1444C86.3742 31.4098 86.3972 30.572 86.4431 29.6308C86.5119 28.6667 86.5808 27.7026 86.6497 26.7384C86.7415 25.7514 86.8218 24.8676 86.8907 24.0871H78.5235V21.4013H89.4388V32.1444H86.3742Z" fill="white"/>
<path d="M94.0622 8.07574H97.3678V32.1444H94.0622V8.07574Z" fill="white"/>
<path d="M115.347 26.5663H118.481C118.297 27.6911 117.861 28.7011 117.172 29.5964C116.484 30.4916 115.577 31.2032 114.452 31.7312C113.327 32.2592 112.007 32.5232 110.492 32.5232C108.702 32.5232 107.106 32.1444 105.706 31.3869C104.306 30.6294 103.204 29.5849 102.401 28.2535C101.597 26.9221 101.195 25.3726 101.195 23.605C101.195 21.8145 101.586 20.2535 102.366 18.9221C103.147 17.5678 104.226 16.5118 105.603 15.7543C106.98 14.9968 108.553 14.618 110.32 14.618C112.18 14.618 113.741 14.9853 115.003 15.7199C116.266 16.4544 117.195 17.5448 117.792 18.991C118.412 20.4142 118.664 22.1933 118.55 24.3281H104.467C104.581 25.3611 104.891 26.2793 105.396 27.0828C105.924 27.8862 106.613 28.5175 107.462 28.9766C108.335 29.4357 109.333 29.6652 110.458 29.6652C111.72 29.6652 112.776 29.3783 113.626 28.8044C114.475 28.2305 115.049 27.4845 115.347 26.5663ZM110.355 17.4415C108.863 17.4415 107.623 17.8432 106.636 18.6467C105.649 19.4272 104.995 20.4716 104.673 21.7801H115.244C115.152 20.3798 114.647 19.3124 113.729 18.5778C112.811 17.8203 111.686 17.4415 110.355 17.4415Z" fill="white"/>
<path d="M135.288 26.5663H138.421C138.237 27.6911 137.801 28.7011 137.113 29.5964C136.424 30.4916 135.517 31.2032 134.392 31.7312C133.268 32.2592 131.948 32.5232 130.433 32.5232C128.642 32.5232 127.047 32.1444 125.646 31.3869C124.246 30.6294 123.144 29.5849 122.341 28.2535C121.537 26.9221 121.136 25.3726 121.136 23.605C121.136 21.8145 121.526 20.2535 122.306 18.9221C123.087 17.5678 124.166 16.5118 125.543 15.7543C126.92 14.9968 128.493 14.618 130.26 14.618C132.12 14.618 133.681 14.9853 134.943 15.7199C136.206 16.4544 137.136 17.5448 137.732 18.991C138.352 20.4142 138.605 22.1933 138.49 24.3281H124.407C124.522 25.3611 124.831 26.2793 125.336 27.0828C125.864 27.8862 126.553 28.5175 127.402 28.9766C128.275 29.4357 129.273 29.6652 130.398 29.6652C131.661 29.6652 132.717 29.3783 133.566 28.8044C134.415 28.2305 134.989 27.4845 135.288 26.5663ZM130.295 17.4415C128.803 17.4415 127.563 17.8432 126.576 18.6467C125.589 19.4272 124.935 20.4716 124.613 21.7801H135.184C135.093 20.3798 134.588 19.3124 133.669 18.5778C132.751 17.8203 131.626 17.4415 130.295 17.4415Z" fill="white"/>
<path d="M151.475 9.79739C153.793 9.79739 155.733 10.0958 157.294 10.6926C158.878 11.2665 160.14 12.07 161.081 13.103C162.046 14.1359 162.734 15.3181 163.147 16.6496C163.561 17.981 163.767 19.3927 163.767 20.8848C163.767 22.354 163.538 23.7657 163.079 25.1201C162.642 26.4744 161.931 27.6796 160.944 28.7355C159.98 29.7915 158.717 30.6294 157.156 31.2492C155.595 31.846 153.701 32.1444 151.475 32.1444H142.522V9.79739H151.475ZM145.828 29.1487H151.44C153.208 29.1487 154.665 28.9192 155.813 28.4601C156.961 27.978 157.868 27.3467 158.533 26.5663C159.222 25.7628 159.704 24.8676 159.98 23.8805C160.278 22.8934 160.427 21.8949 160.427 20.8848C160.427 19.8518 160.278 18.8533 159.98 17.8891C159.704 16.925 159.222 16.0642 158.533 15.3067C157.868 14.5262 156.961 13.9179 155.813 13.4817C154.665 13.0226 153.208 12.7931 151.44 12.7931H145.828V29.1487Z" fill="white"/>
<path d="M180.952 26.5663H184.085C183.901 27.6911 183.465 28.7011 182.777 29.5964C182.088 30.4916 181.181 31.2032 180.056 31.7312C178.932 32.2592 177.612 32.5232 176.097 32.5232C174.306 32.5232 172.711 32.1444 171.31 31.3869C169.91 30.6294 168.808 29.5849 168.005 28.2535C167.201 26.9221 166.8 25.3726 166.8 23.605C166.8 21.8145 167.19 20.2535 167.97 18.9221C168.751 17.5678 169.83 16.5118 171.207 15.7543C172.585 14.9968 174.157 14.618 175.925 14.618C177.784 14.618 179.345 14.9853 180.607 15.7199C181.87 16.4544 182.8 17.5448 183.396 18.991C184.016 20.4142 184.269 22.1933 184.154 24.3281H170.071C170.186 25.3611 170.496 26.2793 171.001 27.0828C171.529 27.8862 172.217 28.5175 173.067 28.9766C173.939 29.4357 174.937 29.6652 176.062 29.6652C177.325 29.6652 178.381 29.3783 179.23 28.8044C180.079 28.2305 180.653 27.4845 180.952 26.5663ZM175.959 17.4415C174.467 17.4415 173.227 17.8432 172.24 18.6467C171.253 19.4272 170.599 20.4716 170.277 21.7801H180.848C180.757 20.3798 180.252 19.3124 179.333 18.5778C178.415 17.8203 177.29 17.4415 175.959 17.4415Z" fill="white"/>
<path d="M186.878 26.5663H189.908C190.023 27.4845 190.436 28.242 191.147 28.8388C191.859 29.4127 192.858 29.6997 194.143 29.6997C194.969 29.6997 195.612 29.6078 196.071 29.4242C196.53 29.2176 196.852 28.9421 197.035 28.5978C197.242 28.2535 197.345 27.8747 197.345 27.4615C197.345 26.9336 197.208 26.5318 196.932 26.2564C196.657 25.9579 196.266 25.7169 195.761 25.5333C195.256 25.3267 194.66 25.1316 193.971 24.9479C193.213 24.7413 192.456 24.5003 191.698 24.2248C190.941 23.9494 190.241 23.6165 189.598 23.2263C188.978 22.836 188.473 22.354 188.083 21.7801C187.716 21.1832 187.532 20.4601 187.532 19.6108C187.532 18.8992 187.681 18.2335 187.98 17.6137C188.301 16.9939 188.749 16.4659 189.322 16.0298C189.919 15.5707 190.608 15.2263 191.388 14.9968C192.169 14.7443 193.03 14.618 193.971 14.618C195.279 14.618 196.381 14.859 197.276 15.3411C198.172 15.8002 198.849 16.4544 199.308 17.3038C199.79 18.1531 200.043 19.1287 200.066 20.2306H197.173C197.012 19.2665 196.68 18.5663 196.175 18.1302C195.67 17.6711 194.912 17.4415 193.902 17.4415C192.915 17.4415 192.157 17.6366 191.629 18.0269C191.101 18.4171 190.837 18.9451 190.837 19.6108C190.837 20.1158 191.021 20.529 191.388 20.8504C191.756 21.1488 192.249 21.4128 192.869 21.6423C193.489 21.8719 194.189 22.1129 194.969 22.3654C195.704 22.6179 196.404 22.8819 197.07 23.1574C197.759 23.4099 198.367 23.7198 198.895 24.0871C199.446 24.4314 199.87 24.8905 200.169 25.4644C200.49 26.0153 200.651 26.704 200.651 27.5304C200.651 28.5404 200.398 29.4242 199.893 30.1817C199.388 30.9163 198.654 31.4902 197.69 31.9034C196.749 32.3166 195.601 32.5232 194.246 32.5232C193.007 32.5232 191.951 32.374 191.079 32.0755C190.229 31.7771 189.506 31.3869 188.909 30.9048C188.335 30.4228 187.888 29.9177 187.566 29.3898C187.268 28.8388 187.061 28.3109 186.947 27.8059C186.855 27.3008 186.832 26.8876 186.878 26.5663Z" fill="white"/>
<path d="M208.072 7.86914V11.4157H203.974V7.86914H208.072ZM204.387 14.9623H207.659V32.1444H204.387V14.9623Z" fill="white"/>
<path d="M219.238 29.4586C217.814 29.4586 216.506 29.1717 215.312 28.5978C214.119 28.0239 213.166 27.1861 212.454 26.0842C211.766 24.9823 211.421 23.6509 211.421 22.09C211.421 20.552 211.766 19.232 212.454 18.1302C213.143 17.0054 214.073 16.1445 215.243 15.5477C216.437 14.9279 217.769 14.618 219.238 14.618C219.674 14.618 220.087 14.6524 220.477 14.7213C220.868 14.7672 221.246 14.8476 221.614 14.9623H229.12V18.0613C228.087 18.0613 227.043 17.8891 225.987 17.5448C224.954 17.2005 224.047 16.8332 223.266 16.443L223.163 16.2708C223.944 16.684 224.621 17.189 225.195 17.7858C225.769 18.3597 226.205 19.014 226.503 19.7485C226.824 20.4601 226.985 21.2636 226.985 22.1588C226.985 23.6739 226.641 24.9823 225.952 26.0842C225.286 27.1861 224.357 28.0239 223.163 28.5978C221.992 29.1717 220.684 29.4586 219.238 29.4586ZM224.506 39.0999V38.3079C224.506 37.1372 224.185 36.2993 223.542 35.7943C222.899 35.2893 221.958 35.0368 220.718 35.0368H216.69C215.84 35.0368 215.117 34.9679 214.52 34.8302C213.924 34.6925 213.43 34.4859 213.04 34.2104C212.65 33.9579 212.363 33.6365 212.179 33.2463C211.995 32.879 211.904 32.4658 211.904 32.0067C211.904 31.1114 212.179 30.4342 212.73 29.9751C213.281 29.516 213.981 29.2291 214.83 29.1143C215.68 28.9766 216.54 28.9651 217.413 29.0799L219.238 29.4586C217.929 29.5275 216.931 29.6538 216.242 29.8374C215.553 30.021 215.209 30.4113 215.209 31.0081C215.209 31.3525 215.347 31.6279 215.622 31.8345C215.898 32.0411 216.288 32.1444 216.793 32.1444H220.994C222.302 32.1444 223.462 32.3051 224.472 32.6265C225.505 32.9708 226.308 33.5332 226.882 34.3137C227.479 35.1171 227.777 36.2075 227.777 37.5848V39.0999H224.506ZM219.238 26.6696C220.064 26.6696 220.81 26.4974 221.476 26.1531C222.165 25.7858 222.715 25.2693 223.129 24.6036C223.542 23.9149 223.748 23.0885 223.748 22.1244C223.748 21.1373 223.542 20.2995 223.129 19.6108C222.738 18.8992 222.199 18.3712 221.51 18.0269C220.822 17.6596 220.064 17.4759 219.238 17.4759C218.411 17.4759 217.642 17.6596 216.931 18.0269C216.242 18.3712 215.691 18.8877 215.278 19.5764C214.865 20.265 214.658 21.1144 214.658 22.1244C214.658 23.0885 214.865 23.9149 215.278 24.6036C215.691 25.2693 216.242 25.7858 216.931 26.1531C217.619 26.4974 218.388 26.6696 219.238 26.6696Z" fill="white"/>
<path d="M232.257 14.9623H235.562V32.1444H232.257V14.9623ZM242.105 14.618C243.069 14.618 243.941 14.7557 244.722 15.0312C245.502 15.3067 246.168 15.7199 246.719 16.2708C247.27 16.7988 247.694 17.4645 247.993 18.2679C248.314 19.0484 248.475 19.9436 248.475 20.9537V32.1444H245.204V21.6768C245.204 20.3224 244.871 19.3124 244.205 18.6467C243.562 17.958 242.575 17.6137 241.244 17.6137C240.211 17.6137 239.27 17.8547 238.42 18.3368C237.571 18.8188 236.871 19.4616 236.32 20.265C235.792 21.0455 235.471 21.9293 235.356 22.9164L235.321 21.0226C235.436 20.1043 235.677 19.255 236.045 18.4745C236.435 17.694 236.917 17.0168 237.491 16.443C238.088 15.8461 238.776 15.3985 239.557 15.1001C240.337 14.7787 241.187 14.618 242.105 14.618Z" fill="white"/>
<path fill-rule="evenodd" clip-rule="evenodd" d="M45.9501 33.1615C47.0175 30.284 47.5513 27.0584 47.5513 23.4847C47.5513 18.3794 46.0197 14.1791 42.9565 10.8839C40.6178 8.40557 37.4652 6.66231 33.4988 5.65414C34.2491 5.72265 35.0346 5.79508 35.8555 5.87144L41.7034 6.28915C43.6063 6.38197 45.3003 6.42838 46.7855 6.42838V0.232422L25.0648 0.232422V11.2475C24.7773 11.2273 24.4871 11.217 24.1945 11.217C17.4251 11.217 11.9374 16.7047 11.9374 23.4742C11.9374 30.2436 17.4251 35.7313 24.1945 35.7313C30.964 35.7313 36.4517 30.2436 36.4517 23.4742C36.4517 19.0086 34.0637 15.1008 30.495 12.9581V8.55292C32.63 9.08841 34.4865 9.95822 36.0644 11.1624C37.7816 12.4619 39.1275 14.1559 40.1022 16.2445C41.0304 18.2866 41.4945 20.6768 41.4945 23.4151C41.4945 26.9424 40.7984 29.9591 39.406 32.4653C37.9672 34.9252 35.9947 36.8048 33.4885 38.1044C30.9359 39.3575 27.9655 39.984 24.5775 39.984C21.143 39.984 18.103 39.2647 15.4576 37.8259C12.7657 36.3871 10.6772 34.3914 9.19199 31.8388C7.66041 29.2861 6.89462 26.2694 6.89462 22.7885C6.89462 20.2359 7.31232 17.9617 8.14773 15.966C8.98314 13.9703 10.1666 12.2995 11.6982 10.9535C13.2298 9.60759 15.0631 8.63294 17.198 8.02958V1.97286C13.8564 2.29774 10.9788 3.36521 8.56544 5.17527C6.10562 6.98532 4.20274 9.39873 2.8568 12.4155C1.51086 15.3858 0.837891 18.8435 0.837891 22.7885C0.837891 26.3158 1.39483 29.5414 2.50871 32.4653C3.62259 35.3893 5.247 37.9187 7.38194 40.0537C9.47046 42.1886 11.9767 43.8362 14.9006 44.9965C17.7782 46.1568 21.0038 46.7369 24.5775 46.7369C28.0583 46.7369 31.2375 46.2032 34.1151 45.1357C36.9462 44.0683 39.3596 42.5135 41.3553 40.4714C43.351 38.4292 44.8826 35.9926 45.9501 33.1615Z" fill="white"/>
</svg>
