<svg width="22" height="23" viewBox="0 0 22 23" fill="none" xmlns="http://www.w3.org/2000/svg">
<path d="M6.58717 2.17827C5.60549 1.56503 4.31796 1.66662 3.48927 2.49531L2.08501 3.89957C-0.047745 6.03234 1.95626 11.4942 6.56109 16.0991C11.1659 20.7039 16.6278 22.7079 18.7606 20.5751L20.1648 19.1709C21.1343 18.2014 21.1087 16.604 20.1076 15.603L17.9325 13.4279C16.9315 12.4269 15.3341 12.4012 14.3646 13.3707L14.063 13.6723C13.5396 14.1957 12.6952 14.2469 12.1059 13.7606C11.5374 13.2915 10.9712 12.7857 10.4228 12.2374C9.87444 11.689 9.36869 11.1228 8.89958 10.5543C8.41323 9.96491 8.46444 9.12054 8.98785 8.59713L9.28947 8.29551C10.0537 7.53126 10.1996 6.37673 9.73659 5.43178" stroke="white" stroke-width="1.5" stroke-linecap="round"/>
<path d="M17.1939 8.06056C16.9276 7.41103 16.5308 6.80249 16.0034 6.27509C15.5057 5.77748 14.9359 5.3961 14.3275 5.13096" stroke="white" stroke-width="1.5" stroke-linecap="round"/>
<path d="M14.3273 1.41729C15.7838 1.94494 17.1504 2.7926 18.3181 3.96029C19.5151 5.15729 20.3758 6.56327 20.9002 8.06087" stroke="white" stroke-width="1.5" stroke-linecap="round"/>
</svg>
