<svg width="28" height="23" viewBox="0 0 28 23" fill="none" xmlns="http://www.w3.org/2000/svg">
<path fill-rule="evenodd" clip-rule="evenodd" d="M0.567383 7.60449C0.567383 3.63494 3.78534 0.416992 7.75488 0.416992H20.2549C24.2244 0.416992 27.4424 3.63494 27.4424 7.60449V15.1045C27.4424 19.074 24.2244 22.292 20.2549 22.292H7.75488C3.78534 22.292 0.567383 19.074 0.567383 15.1045V7.60449ZM7.06738 6.85449C6.65317 6.54383 6.06555 6.62778 5.75488 7.04199C5.44422 7.4562 5.52817 8.04383 5.94238 8.35449L11.9424 12.8545C13.1646 13.7712 14.8452 13.7712 16.0674 12.8545L22.0674 8.35449C22.4816 8.04383 22.5655 7.4562 22.2549 7.04199C21.9442 6.62778 21.3566 6.54383 20.9424 6.85449L14.9424 11.3545C14.3868 11.7712 13.6229 11.7712 13.0674 11.3545L7.06738 6.85449Z" fill="black"/>
</svg>
