<svg width="31" height="31" viewBox="0 0 31 31" fill="none" xmlns="http://www.w3.org/2000/svg">
<path fill-rule="evenodd" clip-rule="evenodd" d="M2.32715 11.6348C2.32715 7.66522 5.5451 4.44727 9.51465 4.44727H22.0147C25.9842 4.44727 29.2022 7.66522 29.2022 11.6348V19.1348C29.2022 23.1043 25.9842 26.3223 22.0147 26.3223H9.51465C5.5451 26.3223 2.32715 23.1043 2.32715 19.1348V11.6348ZM8.83091 11.0059C8.41827 10.6932 7.83023 10.7741 7.51749 11.1868C7.20475 11.5994 7.28574 12.1875 7.69839 12.5002L13.6884 17.0399C14.9162 17.9705 16.6131 17.9705 17.841 17.0399L23.8309 12.5002C24.2436 12.1875 24.3246 11.5994 24.0118 11.1868C23.6991 10.7741 23.111 10.6932 22.6984 11.0059L16.7084 15.5456C16.1503 15.9686 15.379 15.9686 14.8209 15.5456L8.83091 11.0059Z" fill="#969696"/>
</svg>
