<svg width="130" height="130" viewBox="0 0 130 130" fill="none" xmlns="http://www.w3.org/2000/svg">
<circle cx="64.7883" cy="64.6887" r="64.6887" fill="#DE3E76"/>
<path d="M67.8853 121.696L67.7616 114.242L63.928 114.305L63.9421 115.157L66.8706 115.109L66.9801 121.711L67.8853 121.696Z" fill="#FEFCFD"/>
<path d="M60.2409 115.558C60.2184 115.734 60.1568 115.88 60.0561 115.996C59.9554 116.112 59.8161 116.194 59.638 116.243C59.453 116.291 59.2231 116.297 58.9484 116.262C58.6526 116.225 58.3794 116.15 58.1287 116.04C57.877 115.936 57.6388 115.784 57.4138 115.583L57.3505 116.08C57.3917 116.15 57.4764 116.243 57.6047 116.359C57.7321 116.483 57.9105 116.599 58.1401 116.707C58.3618 116.821 58.6486 116.9 59.0008 116.945C59.5995 117.022 60.0863 116.937 60.4612 116.692C60.8282 116.452 61.0418 116.097 61.102 115.625C61.1443 115.294 61.1028 115.002 60.9775 114.75C60.8522 114.498 60.6709 114.292 60.4335 114.133C60.1882 113.98 59.9177 113.884 59.6218 113.847C59.3542 113.812 59.0803 113.828 58.8001 113.892C58.5128 113.956 58.2646 114.078 58.0554 114.259C57.8391 114.439 57.7112 114.684 57.6717 114.993L57.7598 115.649C57.7922 115.395 57.8843 115.178 58.0363 114.997C58.1803 114.822 58.3647 114.695 58.5894 114.617C58.8072 114.537 59.0463 114.514 59.3069 114.547C59.5112 114.573 59.6903 114.628 59.8442 114.712C59.9901 114.803 60.1003 114.921 60.1748 115.066C60.2422 115.211 60.2643 115.375 60.2409 115.558ZM60.0818 117.814C59.9971 117.86 59.8829 117.913 59.7392 117.974C59.5955 118.034 59.425 118.08 59.2276 118.112C59.0232 118.144 58.8013 118.144 58.5618 118.113C58.4139 118.095 58.2748 118.062 58.1446 118.017C58.0144 117.972 57.904 117.911 57.8135 117.835C57.716 117.758 57.6462 117.66 57.6043 117.54C57.5614 117.427 57.5508 117.286 57.5723 117.117L58.0025 113.747L57.1574 113.639L56.7123 117.126C56.6719 117.443 56.7187 117.721 56.8528 117.96C56.9799 118.198 57.1806 118.392 57.455 118.541C57.7214 118.697 58.0448 118.799 58.4252 118.848C58.8759 118.905 59.2718 118.888 59.6129 118.795C59.9469 118.702 60.214 118.6 60.4142 118.489L60.0818 117.814Z" fill="#FEFCFD"/>
<path d="M52.9762 117.789L53.1729 117.014L50.7987 116.411L50.602 117.185L52.9762 117.789ZM51.7825 119.244L53.4082 112.844L52.5824 112.634L50.9567 119.034L51.7825 119.244Z" fill="#FEFCFD"/>
<path d="M47.1193 110.749C46.6304 110.557 46.1698 110.486 45.7376 110.537C45.2962 110.593 44.8812 110.765 44.4926 111.055L44.9768 111.714C45.2512 111.502 45.5346 111.373 45.8271 111.328C46.1169 111.289 46.4171 111.331 46.7277 111.453C47.0382 111.576 47.2765 111.746 47.4425 111.964C47.6085 112.182 47.6983 112.438 47.7118 112.733C47.7253 113.029 47.6619 113.355 47.5215 113.712C47.3771 114.059 47.2019 114.33 46.996 114.523C46.7809 114.721 46.5429 114.841 46.2821 114.883C46.012 114.93 45.725 114.893 45.4211 114.773C45.1634 114.672 44.9609 114.528 44.8135 114.34C44.6661 114.152 44.5785 113.938 44.5508 113.698C44.5165 113.456 44.5527 113.199 44.6593 112.929C44.6775 112.882 44.7108 112.827 44.7592 112.762C44.805 112.704 44.8443 112.662 44.8772 112.637L44.3806 112.968L47.6511 114.255L47.9163 113.581L44.0215 112.048C44.0163 112.061 44.0046 112.091 43.9864 112.137C43.959 112.187 43.9362 112.236 43.918 112.282C43.7281 112.764 43.6502 113.214 43.6842 113.632C43.7182 114.05 43.8606 114.415 44.1116 114.727C44.3533 115.044 44.6988 115.29 45.1481 115.467C45.5974 115.644 46.0328 115.701 46.4544 115.638C46.8693 115.572 47.2428 115.399 47.5748 115.117C47.9002 114.833 48.1565 114.454 48.3438 113.978C48.5284 113.509 48.6017 113.061 48.5637 112.634C48.5191 112.204 48.3752 111.823 48.1321 111.491C47.8797 111.163 47.5421 110.916 47.1193 110.749Z" fill="#FEFCFD"/>
<path d="M40.7054 109.567L41.494 109.539C41.5088 109.327 41.4849 109.096 41.4222 108.848C41.3533 108.596 41.2347 108.353 41.0664 108.118C40.8945 107.889 40.6667 107.694 40.383 107.532C39.9451 107.282 39.5232 107.205 39.1173 107.3C38.7052 107.392 38.3936 107.623 38.1825 107.993C38.0382 108.246 37.982 108.487 38.0139 108.718C38.0396 108.945 38.1225 109.173 38.2627 109.4C38.3994 109.633 38.5629 109.869 38.7533 110.109C38.8661 110.255 38.971 110.401 39.068 110.546C39.165 110.691 39.232 110.831 39.2691 110.967C39.3061 111.103 39.293 111.226 39.2297 111.337C39.1487 111.479 39.0334 111.552 38.8837 111.556C38.734 111.561 38.5821 111.519 38.4279 111.431C38.2059 111.305 38.0384 111.14 37.9256 110.936C37.8065 110.729 37.7342 110.512 37.7085 110.285L36.9 110.327C36.8949 110.536 36.9342 110.747 37.018 110.958C37.1018 111.169 37.2244 111.37 37.3857 111.56C37.5408 111.747 37.7325 111.905 37.9606 112.035C38.1888 112.166 38.4337 112.252 38.6953 112.295C38.9507 112.335 39.1938 112.31 39.4245 112.221C39.649 112.128 39.8334 111.955 39.9776 111.702C40.1184 111.456 40.1746 111.214 40.1462 110.977C40.1082 110.743 40.0266 110.52 39.9014 110.31C39.7665 110.102 39.6277 109.909 39.4849 109.729C39.3535 109.572 39.235 109.415 39.1292 109.256C39.0199 109.104 38.9489 108.949 38.9162 108.792C38.8738 108.637 38.8949 108.485 38.9793 108.337C39.0743 108.171 39.2116 108.073 39.3913 108.045C39.5612 108.019 39.751 108.066 39.9607 108.186C40.1334 108.284 40.2762 108.407 40.389 108.553C40.4921 108.702 40.5675 108.863 40.6152 109.037C40.6629 109.212 40.6929 109.388 40.7054 109.567Z" fill="#FEFCFD"/>
<path d="M33.7551 109.273L34.2267 108.628L32.2497 107.182L31.7781 107.827L33.7551 109.273ZM32.1043 110.177L36.003 104.847L35.3153 104.344L31.4167 109.674L32.1043 110.177Z" fill="#FEFCFD"/>
<path d="M24.8205 101.665L27.5677 96.6862L23.9191 97.8542L25.7538 94.4549L20.3194 96.1275L20.924 96.8713L24.1909 95.8078L22.3143 99.1725L25.9143 97.9616L24.2159 100.921L24.8205 101.665Z" fill="#FEFCFD"/>
<path d="M20.4382 91.832C20.8672 91.5953 21.1994 91.2863 21.435 90.9049C21.6609 90.5208 21.7776 90.1076 21.7851 89.6656C21.7926 89.2236 21.6814 88.7943 21.4516 88.3778C21.2184 87.955 20.9145 87.6321 20.54 87.409C20.162 87.1796 19.752 87.0612 19.31 87.0537C18.8583 87.0434 18.418 87.1566 17.989 87.3933C17.5539 87.6334 17.2233 87.9456 16.9974 88.3297C16.768 88.7077 16.6496 89.1177 16.6421 89.5597C16.6312 89.9955 16.7424 90.4248 16.9756 90.8475C17.2054 91.2641 17.5093 91.587 17.8873 91.8164C18.2652 92.0457 18.6769 92.1673 19.1224 92.181C19.5644 92.1884 20.003 92.0721 20.4382 91.832ZM20.0214 91.0767C19.723 91.2413 19.4245 91.325 19.1259 91.3275C18.8176 91.3273 18.5382 91.2545 18.2876 91.1089C18.0335 90.9571 17.8293 90.7414 17.675 90.4616C17.5206 90.1819 17.4487 89.8972 17.4592 89.6076C17.4662 89.3118 17.5536 89.0365 17.7212 88.7818C17.8792 88.5243 18.1074 88.3133 18.4058 88.1486C18.7042 87.984 19.0044 87.9035 19.3065 87.9071C19.6051 87.9045 19.8845 87.9774 20.1448 88.1257C20.3954 88.2713 20.5979 88.4839 20.7522 88.7637C20.9066 89.0434 20.9802 89.3312 20.9732 89.6271C20.9565 89.9201 20.8691 90.1954 20.7111 90.4528C20.5497 90.7041 20.3198 90.912 20.0214 91.0767Z" fill="#FEFCFD"/>
<path d="M13.7746 83.7521L14.0752 84.5493L18.6592 82.8205L18.3586 82.0233L13.7746 83.7521ZM14.1291 82.0362L13.306 81.8458C13.2249 82.013 13.192 82.1772 13.2072 82.3384C13.2133 82.4954 13.2477 82.657 13.3104 82.8231C13.3905 83.0357 13.5525 83.2136 13.7963 83.3569C14.04 83.5002 14.3298 83.5844 14.6656 83.6096C14.9922 83.6306 15.3382 83.5722 15.7036 83.4344L15.5683 83.0756C15.3491 83.1583 15.1456 83.2123 14.9578 83.2376C14.7675 83.2562 14.6013 83.2278 14.459 83.1525C14.3168 83.0771 14.2081 82.9398 14.1329 82.7405C14.0828 82.6076 14.0614 82.4905 14.0687 82.3891C14.0693 82.2902 14.0895 82.1726 14.1291 82.0362Z" fill="#FEFCFD"/>
<path d="M8.62354 78.9641L16.7118 77.069L16.5174 76.2395L8.42917 78.1345L8.62354 78.9641ZM11.3344 75.5943L13.7905 77.2065L16.0558 74.2692L15.8128 73.2323L13.5476 76.1696L11.0914 74.5573L11.3344 75.5943Z" fill="#FEFCFD"/>
<path d="M13.4612 57.7957C13.417 57.8035 13.3768 57.8082 13.3407 57.81C13.2975 57.8107 13.2583 57.8085 13.2232 57.8032C13.0406 57.7759 12.9075 57.7058 12.8239 57.5928C12.7333 57.4787 12.7021 57.3269 12.7304 57.1373C12.7441 57.046 12.7723 56.9533 12.8151 56.8592C12.8508 56.764 12.9011 56.6675 12.966 56.5695C13.0309 56.4715 13.1134 56.3761 13.2134 56.2834C13.4155 56.0838 13.5739 55.8885 13.6886 55.6975C13.8033 55.5064 13.8737 55.3231 13.9 55.1476C13.9283 54.958 13.9164 54.7731 13.8644 54.5931C13.8123 54.413 13.7085 54.2431 13.5528 54.0835C13.4471 53.9743 13.3296 53.8958 13.2004 53.8477C13.0652 53.7916 12.9449 53.7557 12.8396 53.74C12.7834 53.7316 12.7302 53.7272 12.68 53.7269C12.6298 53.7266 12.5826 53.7303 12.5383 53.7381L12.3613 54.5623C12.4137 54.5486 12.4649 54.5419 12.5151 54.5422C12.5653 54.5425 12.6115 54.5459 12.6536 54.5522C12.8222 54.5773 12.9468 54.6319 13.0276 54.7157C13.1014 54.7985 13.1267 54.9172 13.1037 55.0717C13.09 55.163 13.0487 55.2716 12.9796 55.3977C12.9045 55.5157 12.7952 55.6466 12.6517 55.7903C12.5173 55.9209 12.404 56.0548 12.3117 56.1917C12.2125 56.3277 12.1348 56.4632 12.0787 56.5984C12.0156 56.7326 11.9735 56.8699 11.9525 57.0103C11.92 57.228 11.9352 57.4385 11.9982 57.6417C12.0611 57.845 12.1734 58.0304 12.335 58.1982C12.4478 58.3083 12.5642 58.3939 12.6843 58.455C12.8055 58.509 12.9222 58.5444 13.0346 58.5611C13.1259 58.5748 13.2117 58.5768 13.2921 58.5673L13.4612 57.7957Z" fill="#FEFCFD"/>
<path d="M14.5786 36.2515L21.0232 39.9995L22.9508 36.6852L22.2143 36.2568L20.7418 38.7886L15.0337 35.4689L14.5786 36.2515Z" fill="#FEFCFD"/>
<path d="M23.7856 32.8816C23.6465 32.7714 23.5533 32.6431 23.5061 32.497C23.4589 32.3508 23.4604 32.1889 23.5106 32.0113C23.5652 31.8281 23.6786 31.628 23.8506 31.411C24.0359 31.1773 24.2407 30.9818 24.4651 30.8244C24.684 30.6627 24.9373 30.5373 25.2252 30.4485L24.833 30.1375C24.752 30.1368 24.6285 30.1611 24.4624 30.2107C24.2907 30.2558 24.0993 30.3487 23.8881 30.4893C23.6758 30.62 23.4593 30.8244 23.2388 31.1026C22.8639 31.5756 22.6846 32.036 22.701 32.4839C22.7162 32.9218 22.9102 33.2886 23.283 33.5841C23.5445 33.7914 23.8156 33.9067 24.0963 33.9298C24.3769 33.953 24.6467 33.9041 24.9057 33.7832C25.1634 33.6523 25.385 33.47 25.5702 33.2363C25.7378 33.0249 25.8665 32.7826 25.9562 32.5094C26.0504 32.2307 26.0741 31.955 26.0274 31.6824C25.9852 31.4043 25.8416 31.1682 25.5968 30.9741L24.9902 30.7107C25.1905 30.8694 25.3289 31.0607 25.4053 31.2843C25.4805 31.498 25.4937 31.7214 25.4448 31.9545C25.4003 32.182 25.2965 32.3987 25.1333 32.6045C25.0054 32.7659 24.8657 32.8907 24.7141 32.979C24.5615 33.0573 24.4036 33.0907 24.2405 33.0792C24.0819 33.0622 23.9302 32.9963 23.7856 32.8816ZM21.9369 31.5791C21.9409 31.4826 21.9542 31.3572 21.9768 31.203C21.9994 31.0488 22.048 30.8789 22.1226 30.6934C22.2016 30.5023 22.316 30.3122 22.466 30.123C22.5586 30.0062 22.658 29.9037 22.7641 29.8156C22.8701 29.7276 22.9791 29.6644 23.0909 29.6262C23.2071 29.5825 23.3274 29.5736 23.4517 29.5997C23.5705 29.6213 23.6966 29.6851 23.8301 29.791L26.4925 31.9016L27.0218 31.2339L24.2677 29.0505C24.0173 28.852 23.7551 28.7484 23.4812 28.7396C23.2117 28.7253 22.942 28.7969 22.6721 28.9544C22.4011 29.102 22.1465 29.326 21.9083 29.6265C21.626 29.9826 21.4362 30.3305 21.339 30.6702C21.2463 31.0044 21.1954 31.2857 21.1864 31.5142L21.9369 31.5791Z" fill="#FEFCFD"/>
<path d="M25.6319 25.5099L26.1929 26.0785L27.9366 24.3581L27.3756 23.7895L25.6319 25.5099ZM25.0037 23.7359L29.6413 28.4364L30.2479 27.838L25.6102 23.1375L25.0037 23.7359Z" fill="#FEFCFD"/>
<path d="M34.6861 24.1363C35.1036 23.8173 35.4022 23.4596 35.5818 23.0631C35.7627 22.6568 35.8297 22.2124 35.7828 21.73L34.9676 21.8034C35.0076 22.1481 34.9714 22.4573 34.8588 22.731C34.7419 22.999 34.5509 23.2343 34.2858 23.437C34.0206 23.6396 33.7518 23.7556 33.4794 23.785C33.207 23.8145 32.941 23.7587 32.6813 23.6176C32.4215 23.4765 32.1753 23.2536 31.9424 22.949C31.7196 22.6457 31.5785 22.3558 31.5192 22.0794C31.4613 21.7931 31.4816 21.5273 31.5802 21.2822C31.6802 21.0271 31.8599 20.8004 32.1194 20.6021C32.3394 20.4339 32.5679 20.3353 32.8048 20.3062C33.0417 20.2771 33.2699 20.3126 33.4895 20.4129C33.7148 20.5089 33.9158 20.6725 34.0925 20.9038C34.1227 20.9433 34.153 21.0005 34.1835 21.0755C34.2097 21.1449 34.2251 21.2001 34.2298 21.2413L34.2031 20.6451L31.4105 22.7791L31.8502 23.3545L35.1759 20.8131C35.1673 20.8018 35.1479 20.7764 35.1177 20.7369C35.0889 20.6875 35.0594 20.643 35.0292 20.6035C34.7145 20.1917 34.3695 19.8923 33.9944 19.7054C33.6192 19.5185 33.233 19.4517 32.8359 19.505C32.4401 19.5483 32.0503 19.7165 31.6667 20.0097C31.2831 20.3029 31.0093 20.6462 30.8452 21.0396C30.6869 21.4287 30.6423 21.8381 30.7115 22.2678C30.7863 22.6931 30.9789 23.1089 31.2893 23.5151C31.5954 23.9156 31.941 24.21 32.3262 24.3983C32.7169 24.5822 33.1174 24.656 33.5274 24.6196C33.9389 24.5733 34.3251 24.4122 34.6861 24.1363Z" fill="#FEFCFD"/>
<path d="M39.0135 19.2568L38.63 19.9465C38.804 20.0689 39.0135 20.1675 39.2585 20.2422C39.5096 20.3135 39.7793 20.3378 40.0675 20.3152C40.3523 20.2864 40.6373 20.1924 40.9225 20.0332C41.3627 19.7876 41.647 19.4664 41.7752 19.0696C41.9096 18.6694 41.873 18.2832 41.6654 17.9112C41.5236 17.657 41.3457 17.4839 41.1317 17.3919C40.924 17.2964 40.6866 17.25 40.4198 17.2525C40.1494 17.2489 39.8626 17.2667 39.5592 17.3059C39.3758 17.3269 39.1969 17.3414 39.0224 17.3493C38.8479 17.3572 38.6931 17.342 38.5578 17.3036C38.4226 17.2652 38.3238 17.1902 38.2616 17.0786C38.182 16.936 38.179 16.7995 38.2525 16.669C38.3261 16.5385 38.4403 16.43 38.5953 16.3435C38.8186 16.219 39.0464 16.161 39.2788 16.1695C39.5174 16.1746 39.7406 16.2249 39.9484 16.3203L40.3308 15.6069C40.1541 15.4941 39.9536 15.419 39.7294 15.3814C39.5052 15.3439 39.27 15.3451 39.0239 15.3848C38.784 15.4211 38.5493 15.5033 38.3199 15.6313C38.0905 15.7593 37.8898 15.9242 37.7177 16.1259C37.5519 16.3241 37.4475 16.545 37.4045 16.7885C37.3677 17.0286 37.4202 17.2757 37.5621 17.5299C37.7005 17.7779 37.8784 17.951 38.0958 18.0493C38.3159 18.1378 38.5484 18.1829 38.7933 18.1845C39.0408 18.1765 39.2784 18.1577 39.5059 18.1283C39.7079 18.0969 39.9041 18.0769 40.0944 18.0683C40.2813 18.0535 40.4506 18.0728 40.6024 18.1263C40.757 18.1702 40.8758 18.2665 40.9588 18.4153C41.0522 18.5827 41.0646 18.7506 40.996 18.919C40.93 19.0777 40.7917 19.2159 40.5809 19.3336C40.4073 19.4304 40.2288 19.4894 40.0454 19.5104C39.8647 19.5218 39.6874 19.5028 39.5135 19.4535C39.3397 19.4041 39.173 19.3386 39.0135 19.2568Z" fill="#FEFCFD"/>
<path d="M42.8583 13.4597L43.1663 14.1967L45.4264 13.2522L45.1184 12.5152L42.8583 13.4597ZM42.9382 11.5794L45.4844 17.672L46.2705 17.3435L43.7243 11.2509L42.9382 11.5794Z" fill="#FEFCFD"/>
<path d="M53.9907 9.74538L56.8317 14.6708L57.7183 10.9438L59.6794 14.2718L61.0574 8.75526L60.1081 8.88826L59.3295 12.2344L57.4196 8.88855L56.5948 12.5961L54.9399 9.61238L53.9907 9.74538Z" fill="#FEFCFD"/>
<path d="M64.6729 11.0781C64.6537 11.5676 64.7465 12.0118 64.9511 12.4106C65.1631 12.8026 65.4564 13.1161 65.8309 13.3511C66.2054 13.586 66.6303 13.7128 67.1057 13.7314C67.5881 13.7503 68.0217 13.6571 68.4063 13.4519C68.7981 13.247 69.1114 12.9573 69.3464 12.5828C69.5887 12.2015 69.7194 11.766 69.7386 11.2765C69.758 10.7798 69.6618 10.3355 69.4497 9.94351C69.2448 9.55178 68.9551 9.23844 68.5806 9.00349C68.2132 8.76882 67.7882 8.64204 67.3058 8.62314C66.8304 8.60452 66.3969 8.69768 66.0052 8.90261C65.6134 9.10754 65.2965 9.39712 65.0545 9.77135C64.8196 10.1458 64.6924 10.5814 64.6729 11.0781ZM65.5349 11.1118C65.5483 10.7713 65.631 10.4725 65.7832 10.2156C65.9427 9.95181 66.1496 9.75029 66.4038 9.61103C66.665 9.47204 66.9553 9.4088 67.2745 9.42131C67.5938 9.43381 67.8747 9.51942 68.1172 9.67814C68.3667 9.83714 68.5572 10.0542 68.6885 10.3294C68.8272 10.5977 68.8899 10.9022 68.8766 11.2427C68.8632 11.5833 68.7769 11.8819 68.6177 12.1386C68.4655 12.3955 68.2586 12.597 67.9971 12.7431C67.7429 12.8824 67.4562 12.9457 67.137 12.9332C66.8177 12.9207 66.5333 12.835 66.2837 12.676C66.0415 12.5102 65.851 12.2931 65.7123 12.0247C65.5807 11.7567 65.5216 11.4524 65.5349 11.1118Z" fill="#FEFCFD"/>
<path d="M75.0343 9.55153L74.1965 9.39672L73.3063 14.2144L74.1442 14.3692L75.0343 9.55153ZM76.3198 10.7421L76.9083 10.1361C76.8072 9.98017 76.6836 9.8671 76.5378 9.79682C76.4002 9.72086 76.2441 9.66675 76.0696 9.6345C75.8461 9.59322 75.6101 9.63986 75.3614 9.77442C75.1127 9.90898 74.8908 10.1135 74.6957 10.3879C74.5088 10.6566 74.3799 10.983 74.309 11.367L74.686 11.4367C74.7286 11.2063 74.7876 11.0042 74.863 10.8304C74.9454 10.6579 75.0557 10.5302 75.1937 10.4474C75.3318 10.3646 75.5055 10.3426 75.715 10.3813C75.8546 10.4071 75.9659 10.4493 76.049 10.508C76.1333 10.5597 76.2236 10.6377 76.3198 10.7421Z" fill="#FEFCFD"/>
<path d="M81.7959 7.61792L79.2363 15.5211L80.0469 15.7836L82.6065 7.88044L81.7959 7.61792ZM83.2789 11.6806L80.6289 12.9494L81.972 16.4071L82.9852 16.7352L81.6422 13.2776L84.2921 12.0088L83.2789 11.6806Z" fill="#FEFCFD"/>
<path d="M97.4145 22.7028C97.4307 22.661 97.4474 22.6241 97.4646 22.5922C97.4863 22.5549 97.5084 22.5225 97.5311 22.4952C97.6488 22.353 97.7777 22.2754 97.9177 22.2622C98.0621 22.2436 98.2082 22.2954 98.3559 22.4177C98.4269 22.4765 98.4917 22.5486 98.5502 22.6339C98.6131 22.7137 98.6698 22.8067 98.7201 22.9129C98.7704 23.0191 98.8094 23.139 98.8371 23.2726C98.9034 23.5487 98.9887 23.7853 99.0929 23.9822C99.1972 24.1792 99.3177 24.3343 99.4544 24.4475C99.602 24.5698 99.7664 24.6552 99.9474 24.7037C100.128 24.7522 100.328 24.7512 100.545 24.7005C100.693 24.6664 100.821 24.6065 100.929 24.5207C101.047 24.434 101.14 24.3496 101.207 24.2676C101.244 24.2238 101.275 24.1805 101.301 24.1377C101.327 24.0949 101.349 24.0526 101.365 24.0107L100.751 23.4331C100.736 23.4849 100.715 23.5323 100.689 23.5751C100.662 23.6179 100.636 23.6557 100.608 23.6885C100.5 23.8197 100.389 23.8983 100.275 23.9241C100.166 23.9444 100.051 23.9048 99.931 23.8051C99.8599 23.7462 99.7883 23.6546 99.7161 23.5303C99.6539 23.4051 99.5984 23.2439 99.5496 23.0467C99.5072 22.8641 99.4513 22.6979 99.3817 22.5482C99.3167 22.3929 99.2408 22.2563 99.1541 22.1384C99.0719 22.015 98.9761 21.908 98.8667 21.8175C98.6972 21.6771 98.5092 21.5813 98.3027 21.5301C98.0962 21.4789 97.8793 21.4791 97.6522 21.5307C97.4996 21.5703 97.3661 21.6257 97.2518 21.697C97.143 21.7728 97.0523 21.8544 96.9798 21.9419C96.921 22.013 96.8748 22.0854 96.8414 22.1591L97.4145 22.7028Z" fill="#FEFCFD"/>
<path d="M115.278 34.7983L108.738 38.377L110.578 41.7405L111.326 41.3315L109.92 38.7621L115.712 35.5925L115.278 34.7983Z" fill="#FEFCFD"/>
<path d="M113.402 44.4215C113.568 44.3595 113.726 44.346 113.876 44.3812C114.025 44.4163 114.163 44.5013 114.289 44.6361C114.418 44.7776 114.531 44.9781 114.627 45.2375C114.732 45.5169 114.793 45.7933 114.812 46.0668C114.837 46.3377 114.813 46.6194 114.741 46.9118L115.21 46.7368C115.252 46.6679 115.295 46.5496 115.339 46.3818C115.389 46.2115 115.408 45.9996 115.397 45.7461C115.395 45.4968 115.332 45.2059 115.208 44.8733C114.997 44.3078 114.695 43.9163 114.303 43.6988C113.921 43.4854 113.506 43.4619 113.061 43.6282C112.748 43.7448 112.509 43.9173 112.344 44.1455C112.179 44.3738 112.082 44.63 112.051 44.9142C112.03 45.2025 112.072 45.4863 112.176 45.7657C112.27 46.0185 112.411 46.2539 112.599 46.472C112.788 46.6967 113.012 46.8595 113.27 46.9605C113.53 47.0681 113.806 47.0673 114.099 46.9581L114.638 46.5751C114.398 46.6644 114.163 46.684 113.932 46.6337C113.71 46.5877 113.512 46.4835 113.338 46.3211C113.166 46.1654 113.034 45.9645 112.943 45.7184C112.871 45.5255 112.836 45.3413 112.839 45.166C112.851 44.9948 112.904 44.8424 112.998 44.7088C113.094 44.5818 113.229 44.486 113.402 44.4215ZM115.473 43.5125C115.553 43.5658 115.654 43.642 115.774 43.7411C115.895 43.8402 116.015 43.9696 116.135 44.1294C116.258 44.2958 116.361 44.4921 116.446 44.7182C116.498 44.8579 116.534 44.9959 116.555 45.1323C116.575 45.2686 116.573 45.3945 116.548 45.51C116.525 45.6321 116.471 45.7396 116.384 45.8325C116.304 45.923 116.184 45.998 116.025 46.0576L112.842 47.2452L113.139 48.0435L116.432 46.8149C116.732 46.7032 116.956 46.5324 117.105 46.3024C117.257 46.0791 117.335 45.8113 117.339 45.4988C117.353 45.1905 117.293 44.8568 117.159 44.4975C117 44.0718 116.801 43.7295 116.56 43.4706C116.322 43.2185 116.107 43.0295 115.916 42.9037L115.473 43.5125Z" fill="#FEFCFD"/>
<path d="M118.758 49.8131L117.981 49.9993L118.552 52.3814L119.329 52.1951L118.758 49.8131ZM120.601 50.1925L114.18 51.7321L114.379 52.5606L120.8 51.0211L120.601 50.1925Z" fill="#FEFCFD"/>
<path d="M115.253 58.2733C115.31 58.7956 115.462 59.2361 115.708 59.5948C115.963 59.9598 116.308 60.2469 116.746 60.4561L117.104 59.7204C116.788 59.5765 116.542 59.3855 116.366 59.1477C116.197 58.9091 116.095 58.6239 116.058 58.2922C116.022 57.9605 116.062 57.6704 116.177 57.422C116.293 57.1736 116.478 56.9748 116.733 56.8254C116.988 56.676 117.306 56.5804 117.688 56.5387C118.062 56.5047 118.383 56.5338 118.651 56.626C118.926 56.7244 119.143 56.8792 119.302 57.0903C119.468 57.3078 119.569 57.5788 119.605 57.9035C119.635 58.1788 119.601 58.4253 119.504 58.6431C119.406 58.861 119.258 59.038 119.059 59.1741C118.86 59.3173 118.616 59.4047 118.327 59.4364C118.277 59.4419 118.213 59.4382 118.133 59.4256C118.06 59.4121 118.004 59.3968 117.967 59.3794L118.491 59.6649L118.108 56.1712L117.388 56.2501L117.844 60.4107C117.858 60.4092 117.89 60.4057 117.939 60.4003C117.997 60.4012 118.05 60.3989 118.099 60.3935C118.615 60.337 119.049 60.1965 119.403 59.972C119.757 59.7475 120.014 59.4515 120.174 59.084C120.341 58.7228 120.399 58.3022 120.346 57.8223C120.293 57.3423 120.141 56.9305 119.889 56.5866C119.638 56.2499 119.311 56.0001 118.907 55.8372C118.504 55.6813 118.049 55.6312 117.541 55.6869C117.04 55.7418 116.609 55.8855 116.249 56.1178C115.889 56.3572 115.619 56.6618 115.438 57.0316C115.265 57.4077 115.203 57.8216 115.253 58.2733Z" fill="#FEFCFD"/>
<path d="M117.192 64.5005L116.8 63.8157C116.605 63.9013 116.412 64.0297 116.222 64.2007C116.031 64.3789 115.871 64.5971 115.741 64.8556C115.618 65.1142 115.551 65.4067 115.54 65.7331C115.523 66.237 115.651 66.6463 115.924 66.9612C116.197 67.2832 116.547 67.4515 116.973 67.4662C117.263 67.4762 117.504 67.4134 117.693 67.2778C117.882 67.1494 118.045 66.9702 118.18 66.7405C118.323 66.5109 118.456 66.2562 118.58 65.9763C118.657 65.8084 118.737 65.6478 118.82 65.4943C118.903 65.3409 118.997 65.2162 119.099 65.1203C119.202 65.0244 119.317 64.9786 119.445 64.983C119.608 64.9886 119.727 65.0566 119.8 65.1871C119.874 65.3175 119.908 65.4714 119.902 65.6488C119.893 65.9042 119.825 66.1292 119.697 66.3238C119.57 66.5254 119.411 66.6905 119.222 66.8189L119.635 67.5152C119.823 67.4222 119.991 67.2894 120.139 67.1169C120.287 66.9444 120.408 66.7425 120.501 66.5113C120.594 66.2871 120.645 66.0438 120.654 65.7812C120.663 65.5187 120.626 65.2616 120.542 65.0101C120.458 64.7656 120.323 64.5621 120.137 64.3994C119.95 64.2438 119.711 64.1609 119.42 64.1509C119.137 64.1412 118.896 64.204 118.7 64.3393C118.51 64.4819 118.352 64.6576 118.224 64.8664C118.102 65.0825 117.996 65.2955 117.903 65.5054C117.826 65.6946 117.741 65.8728 117.65 66.0402C117.566 66.2078 117.462 66.3428 117.338 66.4451C117.221 66.5547 117.077 66.6066 116.906 66.6007C116.715 66.5941 116.565 66.5179 116.456 66.3721C116.354 66.2336 116.308 66.0437 116.316 65.8025C116.323 65.6038 116.364 65.4205 116.441 65.2526C116.525 65.0921 116.633 64.9502 116.765 64.8268C116.897 64.7035 117.039 64.5947 117.192 64.5005Z" fill="#FEFCFD"/>
<path d="M120.166 70.7889L119.376 70.6715L119.016 73.0945L119.806 73.2119L120.166 70.7889ZM121.734 71.8294L115.203 70.859L115.077 71.7018L121.609 72.6722L121.734 71.8294Z" fill="#FEFCFD"/>
<path d="M117.59 82.2379L111.905 82.1233L114.637 84.8091L110.774 84.7672L114.784 88.7988L115.161 87.9175L112.699 85.5209L116.551 85.616L113.803 82.9931L117.213 83.1192L117.59 82.2379Z" fill="#FEFCFD"/>
<path d="M110.926 90.693C110.517 90.4234 110.089 90.2732 109.642 90.2422C109.197 90.221 108.777 90.3099 108.382 90.509C107.987 90.7081 107.659 91.0063 107.397 91.4036C107.132 91.8068 106.987 92.226 106.964 92.6614C106.937 93.1026 107.023 93.5206 107.222 93.9154C107.423 94.3199 107.728 94.657 108.138 94.9265C108.553 95.1999 108.983 95.3472 109.428 95.3684C109.869 95.3955 110.287 95.3095 110.682 95.1104C111.073 94.9173 111.401 94.6191 111.667 94.2159C111.928 93.8186 112.073 93.3994 112.1 92.9581C112.127 92.5168 112.043 92.0959 111.848 91.6952C111.649 91.3005 111.342 90.9664 110.926 90.693ZM110.452 91.4134C110.737 91.6009 110.949 91.8262 111.091 92.0893C111.234 92.3622 111.3 92.6435 111.287 92.933C111.271 93.2285 111.175 93.5096 111 93.7765C110.824 94.0433 110.605 94.2394 110.344 94.3649C110.079 94.4964 109.795 94.5472 109.491 94.5173C109.19 94.4973 108.897 94.3936 108.612 94.2061C108.328 94.0186 108.117 93.7903 107.979 93.5213C107.838 93.2582 107.772 92.9769 107.783 92.6775C107.795 92.388 107.889 92.1098 108.065 91.843C108.24 91.5762 108.461 91.377 108.726 91.2456C108.993 91.124 109.277 91.0732 109.579 91.0932C109.876 91.1192 110.167 91.2259 110.452 91.4134Z" fill="#FEFCFD"/>
<path d="M106.876 100.351L107.442 99.714L103.778 96.4612L103.213 97.0984L106.876 100.351ZM105.192 100.836L105.407 101.653C105.593 101.647 105.753 101.6 105.889 101.511C106.025 101.433 106.152 101.327 106.27 101.194C106.421 101.024 106.503 100.798 106.516 100.516C106.53 100.233 106.469 99.9377 106.335 99.6288C106.202 99.3299 105.989 99.0509 105.697 98.7916L105.443 99.0783C105.618 99.2339 105.76 99.3889 105.87 99.5433C105.975 99.703 106.027 99.8634 106.027 100.024C106.026 100.185 105.955 100.345 105.814 100.505C105.72 100.611 105.626 100.684 105.533 100.725C105.445 100.771 105.332 100.807 105.192 100.836Z" fill="#FEFCFD"/>
<path d="M105.036 107.138L99.5941 100.861L98.9503 101.42L104.392 107.697L105.036 107.138ZM100.791 106.307L101.075 103.383L97.4213 102.745L96.6165 103.443L100.271 104.081L99.9866 107.005L100.791 106.307Z" fill="#FEFCFD"/>
<path d="M84.0479 112.709C84.0753 112.744 84.0982 112.778 84.1166 112.809C84.1374 112.847 84.1536 112.882 84.1653 112.916C84.2261 113.09 84.226 113.241 84.1649 113.367C84.1061 113.5 83.9862 113.599 83.8052 113.662C83.7181 113.692 83.6229 113.71 83.5197 113.716C83.4188 113.729 83.3099 113.729 83.193 113.718C83.0761 113.706 82.9533 113.677 82.8247 113.632C82.554 113.546 82.3074 113.496 82.0849 113.484C81.8624 113.471 81.6674 113.494 81.4998 113.553C81.3188 113.616 81.1607 113.712 81.0256 113.842C80.8904 113.972 80.7884 114.143 80.7195 114.355C80.6721 114.5 80.6573 114.64 80.6749 114.777C80.6882 114.923 80.7124 115.046 80.7475 115.146C80.7662 115.2 80.7871 115.249 80.8102 115.294C80.8332 115.338 80.8585 115.378 80.8859 115.414L81.6979 115.187C81.6614 115.147 81.6316 115.105 81.6085 115.06C81.5854 115.016 81.5669 114.973 81.5529 114.933C81.4967 114.772 81.4869 114.636 81.5236 114.526C81.5625 114.422 81.6558 114.344 81.8032 114.293C81.8904 114.262 82.0058 114.248 82.1496 114.251C82.289 114.262 82.4556 114.298 82.6496 114.358C82.8278 114.417 82.999 114.455 83.1632 114.473C83.3297 114.497 83.4858 114.503 83.6316 114.49C83.7797 114.483 83.9208 114.456 84.0549 114.409C84.2627 114.337 84.4419 114.226 84.5925 114.075C84.7431 113.925 84.855 113.739 84.9282 113.518C84.9733 113.367 84.9948 113.224 84.993 113.089C84.9844 112.957 84.9614 112.837 84.9239 112.73C84.8935 112.643 84.8554 112.566 84.8095 112.499L84.0479 112.709Z" fill="#FEFCFD"/>
<rect x="54.7881" y="54.6887" width="20" height="20" rx="5" stroke="white"/>
<path d="M61.7881 64.6887H67.7881" stroke="white" stroke-linecap="round" stroke-linejoin="round"/>
<path d="M64.7881 61.6887L64.7881 67.6887" stroke="white" stroke-linecap="round" stroke-linejoin="round"/>
</svg>
