<svg width="46" height="46" viewBox="0 0 46 46" fill="none" xmlns="http://www.w3.org/2000/svg">
<path fill-rule="evenodd" clip-rule="evenodd" d="M23.6226 30.8325L30.1734 24.2848H13.1561C12.8627 24.2848 12.5813 24.1682 12.3738 23.9608C12.1664 23.7533 12.0498 23.4719 12.0498 23.1785C12.0498 22.8851 12.1664 22.6037 12.3738 22.3963C12.5813 22.1888 12.8627 22.0723 13.1561 22.0723H30.1734L23.6225 15.5245C23.5196 15.4216 23.438 15.2995 23.3824 15.165C23.3267 15.0306 23.298 14.8865 23.298 14.741C23.298 14.5955 23.3267 14.4514 23.3824 14.317C23.4381 14.1826 23.5197 14.0604 23.6226 13.9575C23.7255 13.8546 23.8476 13.773 23.982 13.7173C24.1165 13.6616 24.2605 13.633 24.4061 13.633C24.5516 13.633 24.6956 13.6616 24.8301 13.7173C24.9645 13.773 25.0867 13.8546 25.1895 13.9575L33.6273 22.3953C33.7303 22.498 33.8121 22.6201 33.8678 22.7545C33.9236 22.8889 33.9523 23.033 33.9523 23.1785C33.9523 23.324 33.9236 23.4681 33.8678 23.6025C33.8121 23.7369 33.7301 23.8592 33.627 23.962L25.1895 32.3995C25.0867 32.5024 24.9645 32.584 24.8301 32.6397C24.6956 32.6954 24.5516 32.724 24.4061 32.724C24.2605 32.724 24.1165 32.6954 23.982 32.6397C23.8476 32.584 23.7255 32.5024 23.6226 32.3995C23.5197 32.2966 23.4381 32.1745 23.3824 32.04C23.3267 31.9056 23.298 31.7615 23.298 31.616C23.298 31.4705 23.3267 31.3264 23.3824 31.192C23.438 31.0576 23.5197 30.9354 23.6226 30.8325ZM3.0123 23.1785C3.0123 28.4795 5.11812 33.5634 8.86651 37.3118C12.6149 41.0602 17.6988 43.166 22.9998 43.166C28.3008 43.166 33.3847 41.0602 37.1331 37.3118C40.8815 33.5634 42.9873 28.4795 42.9873 23.1785C42.9873 17.8775 40.8815 12.7936 37.1331 9.04522C33.3847 5.29684 28.3008 3.19102 22.9998 3.19102C17.6988 3.19102 12.6149 5.29684 8.86651 9.04522C5.11812 12.7936 3.0123 17.8775 3.0123 23.1785ZM45.1998 23.1785C45.1998 29.0663 42.8609 34.713 38.6976 38.8763C34.5343 43.0396 28.8876 45.3785 22.9998 45.3785C17.112 45.3785 11.4653 43.0396 7.30203 38.8763C3.13873 34.713 0.799805 29.0663 0.799805 23.1785C0.799805 17.2907 3.13873 11.6441 7.30203 7.48075C11.4653 3.31744 17.112 0.978516 22.9998 0.978516C28.8876 0.978516 34.5343 3.31744 38.6976 7.48075C42.8609 11.6441 45.1998 17.2907 45.1998 23.1785Z" fill="black"/>
</svg>
