<svg width="72" height="92" viewBox="0 0 72 92" fill="none" xmlns="http://www.w3.org/2000/svg">
<path d="M50.4903 19.8548C47.028 14.9796 44.485 9.61698 44.4445 2.57965C44.444 2.5034 44.3603 2.45529 44.2939 2.49275C25.9572 12.8372 27.3676 40.9161 27.5053 43.0876C27.5098 43.1585 27.4459 43.1979 27.3795 43.1726C26.3014 42.7631 19.124 39.6173 19.0503 28.4307C19.0498 28.3543 18.9675 28.3027 18.901 28.3403C8.88368 34.0102 2.12012 44.8165 2.12012 56.8252C2.12012 74.8573 17.2794 89.4752 35.9793 89.4752C54.6792 89.4752 69.8384 74.8573 69.8384 56.8252C69.8384 46.5262 66.0108 39.4054 61.3277 33.2339" stroke="black" stroke-width="4" stroke-linecap="round"/>
</svg>
