<svg width="96" height="90" viewBox="0 0 96 90" fill="none" xmlns="http://www.w3.org/2000/svg">
<path d="M2.44434 61.0142V62.4042C2.44434 76.2113 13.6372 87.4042 27.4443 87.4042H68.8682C82.6753 87.4042 93.8682 76.2113 93.8682 62.4042V42.7481C93.8682 28.941 82.6753 17.7481 68.8682 17.7481H27.4443C13.6372 17.7481 2.44434 28.941 2.44434 42.7481V43.8691" stroke="black" stroke-width="4" stroke-linecap="round"/>
<path d="M80.1546 18.4524V18.4524C80.1546 9.06607 71.5859 2.01433 62.3749 3.8204L60.727 4.14352L41.2995 7.95283L29.9023 10.1876C13.9506 13.3153 2.44434 27.2968 2.44434 43.5522L2.44434 43.8693" stroke="black" stroke-width="4"/>
<path d="M20.7295 65.9575H48.1566" stroke="black" stroke-width="4" stroke-linecap="round" stroke-linejoin="round"/>
<path d="M93.8685 59.9347V61.9347H95.8685V59.9347H93.8685ZM77.8693 42.5397C78.9739 42.5397 79.8693 41.6443 79.8693 40.5397C79.8693 39.4351 78.9739 38.5397 77.8693 38.5397V42.5397ZM91.8685 42.781V59.9347H95.8685V42.781H91.8685ZM93.8685 57.9347H71.5676V61.9347H93.8685V57.9347ZM71.5676 42.5397H77.8693V38.5397H71.5676V42.5397ZM71.5676 57.9347C67.3164 57.9347 63.8701 54.4884 63.8701 50.2372H59.8701C59.8701 56.6976 65.1073 61.9347 71.5676 61.9347V57.9347ZM63.8701 50.2372C63.8701 45.986 67.3164 42.5397 71.5676 42.5397V38.5397C65.1073 38.5397 59.8701 43.7769 59.8701 50.2372H63.8701Z" fill="black"/>
<path d="M73.2979 50.2371H74.2121" stroke="black" stroke-width="4" stroke-linecap="round" stroke-linejoin="round"/>
</svg>
