<svg width="178" height="31" viewBox="0 0 178 31" fill="none" xmlns="http://www.w3.org/2000/svg">
<mask id="mask0_536_1144" style="mask-type:alpha" maskUnits="userSpaceOnUse" x="0" y="0" width="178" height="31">
<path d="M11.6039 24.597C9.88351 24.597 8.33068 24.3401 6.94543 23.8262C5.58252 23.3123 4.40952 22.575 3.42644 21.6143C2.44335 20.6535 1.69487 19.4917 1.18098 18.1288C0.667098 16.7435 0.410156 15.213 0.410156 13.5373C0.410156 11.8169 0.689441 10.2641 1.24801 8.87885C1.80658 7.47125 2.59975 6.26474 3.62752 5.25931C4.65529 4.23154 5.87297 3.44954 7.28057 2.91331C8.68817 2.37709 10.241 2.10897 11.939 2.10897C13.8382 2.10897 15.5027 2.43294 16.9327 3.08088C18.385 3.72882 19.5468 4.64488 20.4181 5.82905C21.2895 6.99088 21.8034 8.37613 21.9598 9.98482H19.0441C18.7536 8.95705 18.2844 8.07451 17.6365 7.33719C16.9885 6.59988 16.1842 6.03014 15.2234 5.62797C14.2627 5.2258 13.1679 5.02471 11.939 5.02471C10.2633 5.02471 8.81105 5.39337 7.5822 6.13068C6.35334 6.84565 5.3926 7.85108 4.69998 9.14696C4.00735 10.4205 3.66104 11.884 3.66104 13.5373C3.66104 15.1684 3.96266 16.5983 4.56592 17.8271C5.19152 19.0337 6.0964 19.9832 7.28057 20.6759C8.48708 21.3461 9.93937 21.6813 11.6374 21.6813C12.9556 21.6813 14.1063 21.4579 15.0894 21.011C16.0948 20.5418 16.9103 19.8939 17.5359 19.0672C18.1839 18.2181 18.6307 17.2015 18.8765 16.0174L20.5522 15.8163C20.2171 18.6985 19.2563 20.8881 17.67 22.3851C16.0836 23.8597 14.0616 24.597 11.6039 24.597ZM19.8149 24.2284C19.8149 23.5134 19.8372 22.6979 19.8819 21.7818C19.9489 20.8434 20.016 19.905 20.083 18.9666C20.1724 18.0059 20.2506 17.1457 20.3176 16.386H12.1736V13.7719H22.7977V24.2284H19.8149Z" fill="#FDFDFD"/>
<path d="M27.2977 0.801915H30.5151V24.2284H27.2977V0.801915Z" fill="#FDFDFD"/>
<path d="M48.015 18.7991H51.0648C50.8861 19.8939 50.4615 20.8769 49.7913 21.7483C49.121 22.6197 48.2384 23.3123 47.1436 23.8262C46.0488 24.3401 44.7641 24.597 43.2895 24.597C41.5468 24.597 39.9939 24.2284 38.631 23.4911C37.2681 22.7537 36.1957 21.7371 35.4137 20.4413C34.6317 19.1454 34.2407 17.6372 34.2407 15.9168C34.2407 14.1741 34.6205 12.6548 35.3801 11.3589C36.1398 10.0407 37.1899 9.0129 38.5305 8.27559C39.8711 7.53828 41.4015 7.16962 43.1219 7.16962C44.9317 7.16962 46.451 7.52711 47.6799 8.24208C48.9087 8.95705 49.8136 10.0183 50.3945 11.4259C50.9978 12.8112 51.2435 14.5428 51.1318 16.6206H37.4245C37.5362 17.6261 37.8379 18.5198 38.3294 19.3018C38.8433 20.0838 39.5136 20.6982 40.3403 21.1451C41.1893 21.5919 42.1612 21.8153 43.256 21.8153C44.4848 21.8153 45.5126 21.5361 46.3393 20.9775C47.166 20.4189 47.7246 19.6928 48.015 18.7991ZM43.1554 9.91779C41.7032 9.91779 40.4967 10.3088 39.5359 11.0908C38.5752 11.8504 37.9384 12.867 37.6256 14.1406H47.9145C47.8251 12.7777 47.3336 11.7387 46.4398 11.0238C45.5461 10.2864 44.4513 9.91779 43.1554 9.91779Z" fill="#FDFDFD"/>
<path d="M67.4231 18.7991H70.4729C70.2942 19.8939 69.8697 20.8769 69.1994 21.7483C68.5291 22.6197 67.6466 23.3123 66.5518 23.8262C65.457 24.3401 64.1723 24.597 62.6976 24.597C60.9549 24.597 59.4021 24.2284 58.0392 23.4911C56.6763 22.7537 55.6038 21.7371 54.8218 20.4413C54.0398 19.1454 53.6488 17.6372 53.6488 15.9168C53.6488 14.1741 54.0286 12.6548 54.7883 11.3589C55.5479 10.0407 56.5981 9.0129 57.9386 8.27559C59.2792 7.53828 60.8097 7.16962 62.5301 7.16962C64.3398 7.16962 65.8591 7.52711 67.088 8.24208C68.3169 8.95705 69.2217 10.0183 69.8027 11.4259C70.4059 12.8112 70.6517 14.5428 70.54 16.6206H56.8327C56.9444 17.6261 57.246 18.5198 57.7375 19.3018C58.2514 20.0838 58.9217 20.6982 59.7484 21.1451C60.5974 21.5919 61.5693 21.8153 62.6641 21.8153C63.893 21.8153 64.9208 21.5361 65.7474 20.9775C66.5741 20.4189 67.1327 19.6928 67.4231 18.7991ZM62.5636 9.91779C61.1113 9.91779 59.9048 10.3088 58.944 11.0908C57.9833 11.8504 57.3465 12.867 57.0337 14.1406H67.3226C67.2332 12.7777 66.7417 11.7387 65.848 11.0238C64.9543 10.2864 63.8595 9.91779 62.5636 9.91779Z" fill="#FDFDFD"/>
<path d="M83.1782 2.47763C85.4349 2.47763 87.3228 2.76808 88.8421 3.349C90.3838 3.90757 91.6126 4.68957 92.5287 5.69499C93.4671 6.70042 94.1374 7.85108 94.5396 9.14696C94.9417 10.4428 95.1428 11.8169 95.1428 13.2692C95.1428 14.6992 94.9194 16.0732 94.4725 17.3915C94.048 18.7097 93.3554 19.8827 92.3946 20.9105C91.4562 21.9382 90.2274 22.7537 88.7081 23.357C87.1888 23.9379 85.3455 24.2284 83.1782 24.2284H74.4645V2.47763H83.1782ZM77.6819 21.3126H83.1447C84.8651 21.3126 86.2839 21.0892 87.401 20.6423C88.5182 20.1731 89.4007 19.5587 90.0487 18.7991C90.7189 18.0171 91.1881 17.1457 91.4562 16.185C91.7467 15.2242 91.8919 14.2523 91.8919 13.2692C91.8919 12.2638 91.7467 11.2919 91.4562 10.3535C91.1881 9.41507 90.7189 8.57722 90.0487 7.8399C89.4007 7.08025 88.5182 6.48816 87.401 6.06365C86.2839 5.61679 84.8651 5.39337 83.1447 5.39337H77.6819V21.3126Z" fill="#FDFDFD"/>
<path d="M111.869 18.7991H114.919C114.74 19.8939 114.315 20.8769 113.645 21.7483C112.975 22.6197 112.092 23.3123 110.997 23.8262C109.903 24.3401 108.618 24.597 107.143 24.597C105.401 24.597 103.848 24.2284 102.485 23.4911C101.122 22.7537 100.049 21.7371 99.2674 20.4413C98.4854 19.1454 98.0944 17.6372 98.0944 15.9168C98.0944 14.1741 98.4743 12.6548 99.2339 11.3589C99.9936 10.0407 101.044 9.0129 102.384 8.27559C103.725 7.53828 105.255 7.16962 106.976 7.16962C108.785 7.16962 110.305 7.52711 111.534 8.24208C112.762 8.95705 113.667 10.0183 114.248 11.4259C114.852 12.8112 115.097 14.5428 114.986 16.6206H101.278C101.39 17.6261 101.692 18.5198 102.183 19.3018C102.697 20.0838 103.367 20.6982 104.194 21.1451C105.043 21.5919 106.015 21.8153 107.11 21.8153C108.339 21.8153 109.366 21.5361 110.193 20.9775C111.02 20.4189 111.578 19.6928 111.869 18.7991ZM107.009 9.91779C105.557 9.91779 104.35 10.3088 103.39 11.0908C102.429 11.8504 101.792 12.867 101.479 14.1406H111.768C111.679 12.7777 111.187 11.7387 110.294 11.0238C109.4 10.2864 108.305 9.91779 107.009 9.91779Z" fill="#FDFDFD"/>
<path d="M117.637 18.7991H120.586C120.698 19.6928 121.1 20.4301 121.792 21.011C122.485 21.5696 123.457 21.8489 124.708 21.8489C125.512 21.8489 126.138 21.7595 126.585 21.5807C127.032 21.3797 127.345 21.1115 127.523 20.7764C127.724 20.4413 127.825 20.0726 127.825 19.6704C127.825 19.1565 127.691 18.7655 127.423 18.4974C127.155 18.207 126.775 17.9724 126.283 17.7936C125.792 17.5925 125.211 17.4026 124.541 17.2239C123.803 17.0228 123.066 16.7882 122.329 16.5201C121.591 16.252 120.91 15.928 120.284 15.5482C119.681 15.1684 119.189 14.6992 118.81 14.1406C118.452 13.5597 118.273 12.8559 118.273 12.0292C118.273 11.3366 118.419 10.6886 118.709 10.0854C119.022 9.4821 119.458 8.96822 120.016 8.5437C120.597 8.09685 121.267 7.7617 122.027 7.53828C122.787 7.29251 123.624 7.16962 124.541 7.16962C125.814 7.16962 126.887 7.40422 127.758 7.87342C128.629 8.32028 129.288 8.95705 129.735 9.78373C130.204 10.6104 130.45 11.56 130.473 12.6324H127.657C127.501 11.694 127.177 11.0126 126.685 10.5881C126.194 10.1412 125.457 9.91779 124.474 9.91779C123.513 9.91779 122.775 10.1077 122.262 10.4875C121.748 10.8674 121.491 11.3812 121.491 12.0292C121.491 12.5207 121.669 12.9229 122.027 13.2357C122.384 13.5262 122.865 13.7831 123.468 14.0065C124.071 14.23 124.753 14.4646 125.512 14.7103C126.227 14.9561 126.909 15.213 127.557 15.4812C128.227 15.7269 128.819 16.0286 129.333 16.386C129.869 16.7212 130.283 17.168 130.573 17.7266C130.886 18.2628 131.042 18.9331 131.042 19.7375C131.042 20.7205 130.797 21.5807 130.305 22.3181C129.813 23.033 129.098 23.5916 128.16 23.9938C127.244 24.3959 126.127 24.597 124.809 24.597C123.602 24.597 122.574 24.4518 121.725 24.1613C120.899 23.8709 120.195 23.4911 119.614 23.0219C119.055 22.5527 118.62 22.0611 118.307 21.5472C118.016 21.011 117.815 20.4971 117.704 20.0056C117.614 19.514 117.592 19.1119 117.637 18.7991Z" fill="#FDFDFD"/>
<path d="M138.265 0.60083V4.0528H134.277V0.60083H138.265ZM134.679 7.50476H137.863V24.2284H134.679V7.50476Z" fill="#FDFDFD"/>
<path d="M149.133 21.6143C147.748 21.6143 146.474 21.335 145.313 20.7764C144.151 20.2178 143.223 19.4023 142.531 18.3299C141.861 17.2574 141.525 15.9615 141.525 14.4422C141.525 12.9452 141.861 11.6605 142.531 10.5881C143.201 9.49327 144.106 8.65542 145.246 8.0745C146.407 7.47125 147.703 7.16962 149.133 7.16962C149.558 7.16962 149.96 7.20313 150.34 7.27016C150.72 7.31485 151.088 7.39305 151.446 7.50476H158.752V10.521C157.746 10.521 156.73 10.3535 155.702 10.0183C154.697 9.68319 153.814 9.3257 153.054 8.94588L152.954 8.7783C153.713 9.18048 154.373 9.67202 154.931 10.2529C155.49 10.8115 155.914 11.4483 156.205 12.1632C156.517 12.8559 156.674 13.6379 156.674 14.5092C156.674 15.9839 156.339 17.2574 155.668 18.3299C155.021 19.4023 154.116 20.2178 152.954 20.7764C151.814 21.335 150.541 21.6143 149.133 21.6143ZM154.261 30.9982V30.2274C154.261 29.0879 153.948 28.2724 153.322 27.7809C152.697 27.2893 151.781 27.0436 150.574 27.0436H146.653C145.826 27.0436 145.123 26.9765 144.542 26.8425C143.961 26.7084 143.48 26.5073 143.101 26.2392C142.721 25.9935 142.441 25.6807 142.263 25.3008C142.084 24.9433 141.995 24.5412 141.995 24.0943C141.995 23.2229 142.263 22.5638 142.799 22.117C143.335 21.6701 144.017 21.3908 144.843 21.2791C145.67 21.1451 146.508 21.1339 147.357 21.2456L149.133 21.6143C147.86 21.6813 146.888 21.8042 146.217 21.9829C145.547 22.1617 145.212 22.5415 145.212 23.1224C145.212 23.4575 145.346 23.7257 145.614 23.9267C145.882 24.1278 146.262 24.2284 146.754 24.2284H150.842C152.116 24.2284 153.244 24.3848 154.227 24.6976C155.233 25.0327 156.015 25.5801 156.573 26.3398C157.154 27.1218 157.445 28.183 157.445 29.5236V30.9982H154.261ZM149.133 18.8996C149.938 18.8996 150.664 18.732 151.312 18.3969C151.982 18.0394 152.518 17.5367 152.92 16.8888C153.322 16.2185 153.524 15.4141 153.524 14.4757C153.524 13.515 153.322 12.6995 152.92 12.0292C152.54 11.3366 152.015 10.8227 151.345 10.4875C150.675 10.13 149.938 9.9513 149.133 9.9513C148.329 9.9513 147.58 10.13 146.888 10.4875C146.217 10.8227 145.681 11.3254 145.279 11.9957C144.877 12.666 144.676 13.4926 144.676 14.4757C144.676 15.4141 144.877 16.2185 145.279 16.8888C145.681 17.5367 146.217 18.0394 146.888 18.3969C147.558 18.732 148.306 18.8996 149.133 18.8996Z" fill="#FDFDFD"/>
<path d="M161.805 7.50476H165.022V24.2284H161.805V7.50476ZM171.39 7.16962C172.328 7.16962 173.177 7.30368 173.937 7.57179C174.697 7.83991 175.345 8.24208 175.881 8.7783C176.417 9.29219 176.831 9.94013 177.121 10.7221C177.434 11.4818 177.59 12.3532 177.59 13.3362V24.2284H174.406V14.04C174.406 12.7218 174.082 11.7387 173.434 11.0908C172.809 10.4205 171.848 10.0854 170.552 10.0854C169.547 10.0854 168.631 10.32 167.804 10.7892C166.977 11.2584 166.296 11.884 165.76 12.666C165.246 13.4256 164.933 14.2858 164.821 15.2466L164.788 13.4033C164.899 12.5096 165.134 11.6829 165.492 10.9232C165.871 10.1636 166.341 9.50445 166.899 8.94588C167.48 8.36496 168.15 7.92928 168.91 7.63882C169.67 7.32602 170.496 7.16962 171.39 7.16962Z" fill="#FDFDFD"/>
</mask>
<g mask="url(#mask0_536_1144)">
<rect x="-13.2305" y="86.4346" width="146.483" height="204.921" transform="rotate(-90 -13.2305 86.4346)" fill="#FDFDFD"/>
</g>
</svg>
