<svg width="75" height="92" viewBox="0 0 75 92" fill="none" xmlns="http://www.w3.org/2000/svg">
<path d="M52.7984 63.342C50.4508 72.5252 46.8145 81.2348 42.025 89.1466M39.6495 38.3894C39.6736 55.7028 34.1359 72.4516 24.0422 85.5931M12.5186 18.3655C8.99638 24.302 7.12314 31.2682 7.13409 38.3895C7.14431 45.2305 5.41542 51.9342 2.14844 57.7212M21.7179 8.09698C26.6185 4.47912 32.3054 2.41154 38.174 2.11397C44.0427 1.81639 49.8739 3.29994 55.048 6.40696C60.2221 9.51397 64.5458 14.1284 67.5595 19.7598C70.5732 25.3912 72.1644 31.8292 72.164 38.3896C72.164 52.5265 69.7536 66.0291 65.3662 78.4183M10.7715 74.9517C18.9091 64.9448 23.4094 51.9067 23.3917 38.3894C23.3917 33.5744 25.1046 28.9565 28.1535 25.5517C31.2023 22.147 35.3375 20.2342 39.6493 20.2342C43.9611 20.2342 48.0963 22.147 51.1451 25.5517C54.194 28.9565 55.9069 33.5744 55.9069 38.3894C55.9069 40.9408 55.8158 43.4681 55.6294 45.9662" stroke="black" stroke-width="4" stroke-linecap="round" stroke-linejoin="round"/>
</svg>
