<svg width="84" height="92" viewBox="0 0 84 92" fill="none" xmlns="http://www.w3.org/2000/svg">
<path d="M58.3756 8.89339L51.8058 5.20222C45.711 1.77799 38.289 1.77799 32.1943 5.20222L5.91474 19.9669C1.78819 22.2853 1.78818 28.2624 5.91473 30.5809L32.1943 45.3455C38.289 48.7697 45.711 48.7698 51.8057 45.3455L78.0853 30.5809C82.2118 28.2624 82.2118 22.2853 78.0853 19.9669L71.5154 16.2757" stroke="black" stroke-width="4" stroke-linecap="round"/>
<path d="M79.3638 63.5813C81.5455 66.3543 80.9751 70.745 77.5603 72.6635L51.8056 87.1333C45.7109 90.5575 38.2889 90.5575 32.1942 87.1333L6.81523 72.8746C3.30008 70.8997 2.81174 66.3291 5.1842 63.5813" stroke="black" stroke-width="4" stroke-linecap="round"/>
<path d="M78.0853 41.4964C82.2118 43.8148 82.2118 49.7919 78.0853 52.1103L51.8057 66.875C45.711 70.2992 38.289 70.2992 32.1943 66.875L5.91473 52.1103C1.78818 49.7919 1.78819 43.8148 5.91474 41.4964" stroke="black" stroke-width="4" stroke-linecap="round"/>
</svg>
